<?xml version="1.0" encoding="UTF-8"?>
<svg viewBox="0 0 1960.609 2306.693" xmlns="http://www.w3.org/2000/svg" class="laos-map-small" role="img" aria-label="Map of Lao PDR" preserveAspectRatio="xMidYMid meet"><g fill="#fbf8ee" stroke="#7a8a78" stroke-width="3" stroke-linejoin="round" stroke-opacity="0.4"><path d="m1576,2099 -3,-4c0,0 -4,-3 -3,-8 1,-5 4,-7 -1,-8 -4,-1 -6,-1 -6,-4 0,-3 0,-5 -2,-6 -2,-1 -3,-3 -5,-5 -2,-2 -4,-3 -4,-6 0,-4 0,-7 0,-9 0,-2 0,-4 -2,-4 -2,-1 -2,0 -2,-4 0,-4 0,-4 -4,-4 -4,0 -6,0 -8,-2 -2,-2 -3,-8 -6,-8 -3,0 -4,1 -4,-4 0,-4 6,-6 4,-9 -2,-4 -3,-6 0,-11 4,-5 4,-6 4,-9 0,-3 4,-4 4,-7 0,-2 6,-8 8,-9 2,-2 6,-2 8,-2 2,-1 4,-2 2,-5 -1,-2 -2,-4 2,-6 4,-2 4,-8 6,-6 3,3 6,4 8,2 3,-1 5,0 6,2 2,2 8,8 8,10 0,3 4,3 4,0 0,-3 2,-6 5,-7 2,-1 4,-2 6,-4 2,-2 4,-2 3,3 -2,4 -3,11 -2,14 0,3 2,6 -1,6 -4,1 -4,2 -2,4 3,2 4,4 2,6 -2,2 -4,2 -1,6 2,4 4,8 7,10 2,2 6,4 10,2 4,-2 6,-4 8,1 1,6 5,8 8,4 2,-4 6,-8 8,-4 2,4 4,1 8,-2 4,-3 8,-4 5,-8 -4,-4 -4,-5 0,-8 4,-4 14,-14 14,-14h6l8,-11c0,0 0,-13 0,-16 0,-3 0,-9 -2,-12 -2,-2 -2,-4 -3,-7 0,-2 0,-4 -3,-6 -3,-2 -6,-4 -6,-4 0,0 -2,2 -5,2 -4,0 -6,1 -6,1l-6,0c0,0 4,-6 7,-7 4,0 3,-2 4,-4 0,-2 5,-12 5,-16 0,-3 9,-5 9,-5l6,-4 6,1c0,0 2,2 6,2 4,0 3,2 6,3 4,2 9,4 9,4 0,0 10,-2 13,-4 3,-1 4,-2 8,-2 4,0 9,-2 11,-3 2,-1 8,-2 10,-4 1,-2 4,-3 6,-4 2,0 15,0 17,0 2,0 4,2 4,4 1,2 3,4 6,4 3,0 4,2 6,6 2,4 7,9 9,12 2,4 6,2 9,2 2,0 3,4 6,4 3,0 5,0 5,0l4,-4c0,0 0,-4 4,-5 4,-2 3,-2 4,-5 0,-4 4,-2 6,4 1,5 6,21 6,21 0,0 4,0 8,0 3,0 2,5 3,8 1,3 0,2 -2,6 -2,4 4,6 4,6l0,0c-3,1 -6,4 -8,5l-1,1c0,0 -4,-1 -4,0 -1,0 -3,1 -3,2 0,0 -1,2 -1,2l0,1c1,1 1,2 1,2l-1,1c1,1 1,3 2,4l0,1c0,1 0,2 0,2 1,1 2,2 2,3 1,1 1,2 2,3 2,1 4,2 6,1 2,1 1,4 3,5l3,1c1,0 2,1 3,1l2,2c1,0 3,0 4,1l3,4c0,0 0,1 0,1l-1,1c0,0 -2,1 -2,1 -1,1 -2,2 -4,4 -1,0 -1,1 -2,1 -1,1 -1,1 -2,2 -1,1 -2,1 -2,2 -1,1 -2,2 -3,3 0,0 -2,1 -2,1 -1,1 -1,2 -1,2 -1,1 -2,1 -2,2l2,4 3,2c1,1 2,5 2,6 -1,2 -2,3 -3,5l0,1 0,1 3,0 2,1c0,0 1,3 0,5l-1,1 0,1 -1,0c-1,0 -2,2 -3,3 0,1 0,2 0,3 0,0 0,1 -1,1 -1,3 -2,3 -5,5 0,1 -1,4 -2,4l-2,0c-2,0 -2,0 -4,2l-1,1h0c0,1 0,3 0,4v0h0l-1,2h0l-1,1c0,1 1,2 1,3 0,1 -1,3 -1,4 -1,0 -3,3 -3,4l1,2c0,1 -2,2 -2,2 0,0 -3,0 -3,0 0,0 -4,-2 -4,-2 -1,0 -1,-1 -2,-2l-2,-1c-1,0 -3,1 -4,1 -1,-1 -3,-2 -3,-3 0,-1 0,-2 -1,-3 -1,-1 -2,-3 -3,-4l-2,-2c-1,-1 -7,0 -9,0 -4,2 -3,7 -4,10l-1,1 0,1c0,0 -2,-1 -3,-1 -1,1 -2,6 -2,7 0,2 0,4 0,6 0,0 -1,1 -1,1l-2,1c0,0 -4,0 -4,0 -1,0 -2,-1 -3,-1 -2,1 -3,9 -5,12l-3,2c0,1 -1,3 -2,3l-1,0c0,0 0,0 -1,0l-2,0 -1,0 -1,1 -3,0c-2,1 -3,4 -4,5l-1,0c0,0 0,0 -1,0l-4,0 -2,0 -1,-1c0,-1 -1,-4 -2,-5l-2,-3 -1,-2c-2,-1 -4,-1 -6,-2 1,1 1,3 1,4l0,2 -1,2c-2,2 -4,3 -5,5 -1,1 -1,2 -2,2 0,0 0,0 0,0 -1,2 -2,4 -3,6 0,0 0,0 0,0 0,0 -1,0 -1,0 0,0 0,0 0,0 -1,0 -3,2 -3,3l0,2c0,0 1,2 1,2 0,1 0,2 0,2 0,1 -1,2 -2,3 0,0 -2,0 -2,0l-5,-2c-1,0 -1,0 -2,-1 0,0 -1,0 -1,0 0,0 -1,0 -1,-1 0,0 0,0 -1,0 0,0 0,0 -1,0 -1,0 -3,-1 -4,0l-1,4c-1,0 -3,-1 -4,-1 -1,0 -1,0 -2,1l-1,1c-1,1 -2,4 -2,5 0,0 0,1 -1,1l-2,0c-1,-1 -3,-3 -3,-5l-3,-1c-1,-1 -2,-2 -3,-3 -1,-1 -1,-2 -1,-3 -2,-3 -4,-6 -6,-8 -1,-1 -2,-2 -3,-4 -1,-1 -1,-4 -2,-6 0,0 0,-1 0,-1 -1,-2 -2,-4 -4,-5l-1,0c-1,1 -3,3 -4,3l-1,0 -2,-2c-1,0 -5,-1 -6,-1 -1,-1 -2,-2 -3,-3 0,0 -1,0 -1,0l-2,0c-1,0 -4,1 -4,2l0,-3 -2,-1 -2,-5c0,-1 0,-3 -1,-4 -1,0 -3,-1 -4,-2v0l-1,0c0,0 0,0 0,0 0,0 0,0 0,0 0,0 -1,0 -1,0 0,0 0,0 -1,0 -1,0 -2,0 -3,0l-1,-1 0,-1 2,-3c0,0 0,-1 0,-1l-3,-8c0,-1 -1,-3 -2,-4 -1,-1 -2,-2 -2,-3l-2,1c-1,0 -2,0 -3,1 -3,4 -6,6 -11,8 0,1 1,1 1,1 2,2 3,3 3,6 0,3 -4,4 -7,4 -2,0 -3,-1 -4,-2 2,4 3,5 -2,9 -1,7 -7,9 -13,7 -1,0 -2,0 -2,0z"/><path d="m1414,2182c-2,-1 -3,-2 -5,-3 1,1 3,2 5,3z"/><path d="m441,1268c1,0 1,0 1,1 0,0 -1,0 -1,-1z"/><path d="m1568,2099c-1,0 -1,0 -2,0l-2,0c0,0 -3,-1 -3,-2 -1,0 -1,-1 -2,-1l-1,-4c-1,0 -4,-2 -4,-2l-2,1c0,-1 -1,-3 -2,-3l-1,0c0,0 -1,1 -1,1 0,0 -1,5 -1,5l1,3 1,2 0,2c0,0 -2,1 -2,1l-1,3c0,0 0,1 0,1 0,2 0,3 -1,4 -1,1 -1,2 -2,4 -1,2 -1,3 -2,5 0,0 -4,1 -4,1l-2,1c-2,2 -4,2 -6,1 -2,-1 -4,-2 -5,-3 -1,0 -3,0 -4,1 -3,1 -5,-1 -7,-3l-1,0c-1,2 -1,4 -2,6 0,0 -1,1 -1,2l-2,-2 -1,0 -1,2c-2,-1 -3,-1 -5,0l-2,0c-1,-1 -2,-1 -3,-2 0,0 -1,0 -1,-1 -1,-1 -1,-2 -2,-2 0,0 0,-1 -1,-1v0l-1,0 -1,0c-1,1 -1,3 -1,3 0,0 0,6 1,8 0,0 0,1 0,1l5,1c1,1 3,5 3,6 0,1 0,2 0,3 0,2 -2,5 -1,6 0,1 0,3 1,4 1,2 4,5 5,7 0,0 1,1 1,1 2,1 6,1 7,3 0,0 1,1 1,2 0,0 1,1 2,1 1,1 2,3 2,4 0,1 0,3 1,5 0,1 2,3 3,5 1,1 1,3 2,4 0,0 2,3 2,3 2,3 7,6 10,8 0,0 1,3 1,3 0,2 -1,5 -3,7 0,0 -2,1 -2,1 -1,1 -3,1 -5,1l-1,1 0,2c-2,1 -4,2 -5,2l-1,2c0,2 0,5 1,7 0,1 1,2 1,3 0,2 0,5 -1,7l-1,1c0,0 -2,0 -2,0 -2,-1 -3,-2 -5,-2 -3,-1 -7,-2 -11,-3l0,0 -2,0 -2,0c0,0 -2,1 -2,1l-3,1c0,0 0,0 0,0l0,0c-1,0 -2,-1 -2,-1 0,0 -5,0 -5,0 -2,0 -3,1 -5,0 -2,0 -3,-1 -5,-1 -1,0 -1,0 -2,-1l0,0c-1,-1 -1,-1 -2,-2 -1,-1 -1,-1 -2,-2 -1,-1 -2,-2 -3,-3 -1,-1 -1,-1 -2,-2 -1,-1 -1,-1 -2,-2 0,0 0,0 0,0 -2,-2 -4,-4 -6,-6 -1,-1 -2,-2 -2,-2 -2,-1 -4,-2 -6,-3 0,0 -1,-1 -1,-1 0,-1 -1,-2 -1,-3 0,-2 0,-4 -1,-6 0,-1 1,-5 0,-6l-2,-1 -2,0 -8,-2c-1,0 -3,-2 -4,-3 -1,0 -4,4 -5,5l-1,0c0,0 -1,-1 -1,-1 0,0 0,0 -1,-1 0,0 -1,-1 -1,-1 0,0 0,0 -1,-1 0,0 -1,-1 -1,-1 -2,-1 -3,-2 -5,-3 0,0 0,0 -1,0l-1,0 1,1 -2,1 -1,3 -1,0c-1,-2 -1,-3 -2,-5 0,-1 -1,-1 -1,-2l-2,-1 -1,1c-1,-1 -1,-3 -2,-4l-1,0c-1,-1 -2,-1 -3,-1l1,2 0,0 0,0c-2,1 -5,-4 -6,-5 0,0 -1,0 -1,0 -3,2 -6,4 -9,6 -1,1 -3,0 -5,1 -1,0 -1,1 -2,2l-5,3c-2,1 -2,1 -2,1 0,0 0,0 -1,0l-2,0 -1,-1 -6,1 -1,-2 -1,0 -3,2c-1,0 -6,0 -7,0l-6,-7c0,0 0,-1 -1,-2 0,0 -1,-1 -2,-1 0,0 0,0 -1,0l0,0 0,-1c0,-1 -2,-3 -2,-4 -1,0 -3,0 -4,0l-1,-2 -4,0c-1,0 -2,-2 -2,-3 0,-1 0,-3 -1,-3 0,0 -2,-2 -2,-2l-1,-5c0,0 -1,0 -1,-1 -1,-1 -1,-3 -2,-4 0,0 -4,-4 -4,-4 -1,-1 -2,0 -3,-2 0,0 0,0 0,-1 -1,-2 0,-5 0,-7 0,-1 -1,-3 -1,-4 0,0 1,-4 1,-5 0,0 0,0 0,0 0,0 0,-1 1,-1 1,0 1,1 2,1 1,0 1,0 2,1l2,0c1,-2 3,-5 5,-6 3,0 5,2 8,1 1,-1 3,-3 4,-4 1,-2 2,-6 5,-6l1,0c1,2 4,5 6,4 1,-2 3,-5 5,-6l2,-2c0,0 2,-1 3,-1 0,0 1,0 1,0 1,0 1,0 2,0 1,0 1,0 2,0 0,0 1,0 1,0 0,0 0,0 0,0 0,0 1,0 1,0 0,0 0,0 0,0 0,0 1,0 1,0l1,-2c0,-1 -1,-2 -1,-3 1,-1 2,-1 3,-2 1,-1 2,-3 3,-4 1,-1 2,-3 3,-4 2,-3 4,-7 7,-10 1,-2 6,-7 6,-9 0,0 0,-1 0,-1 0,-2 0,-4 1,-6 0,-2 -1,-4 -2,-5l0,-9c-1,-1 -2,-4 -2,-6 0,-1 1,-3 1,-3 0,0 -1,-4 -1,-5 0,0 1,-3 1,-3 0,0 0,0 0,-1 0,-2 0,-1 0,-3l0,-1 3,-1c0,-1 0,-2 -1,-2 -1,0 -3,-1 -4,-2 -1,-2 -1,-4 -1,-5l1,-1c0,-2 -1,-3 -2,-5 0,0 0,-2 0,-2 0,-1 2,-4 2,-4l4,-2c0,0 0,0 0,0 0,0 1,0 1,0 0,0 1,0 1,0 0,0 1,0 1,0l1,-1c0,-1 -1,-3 -1,-4l-3,-1 -1,-1 0,-2c1,-1 3,-1 4,-1 0,0 2,0 2,0 1,0 3,-1 4,-2 0,0 0,-2 0,-2 0,-2 -3,-6 -4,-7 0,0 -2,-1 -2,-1l-1,-1c1,-1 2,-5 3,-5 2,0 4,0 6,0 2,-1 2,-3 4,-4 0,0 0,0 1,-1 0,0 1,-1 1,-1 0,0 0,0 1,0 0,0 0,0 1,0 0,0 0,0 1,0 0,0 1,0 1,0l0,-1 0,-2c-3,-3 -3,-2 -7,-3 -1,0 -2,-1 -2,-1 0,-1 -2,-5 -3,-6 -2,-1 -4,-2 -5,-4 0,-1 1,-4 0,-5 -3,-2 -4,-1 -7,-1 -1,-1 -2,-3 -3,-5l-1,0 -1,-1c-2,-1 -5,-1 -7,-2 -1,-2 -2,-3 -2,-5 0,0 0,-1 0,-1 1,-2 2,-3 3,-6l-1,-3c0,0 1,-4 1,-4 0,0 2,-2 2,-2 1,-1 1,-3 2,-5 2,-2 4,-3 5,-4 1,-1 1,-2 2,-3 2,-3 5,-6 8,-7 2,0 3,1 5,0l1,-1 0,0 1,-1c0,-2 -1,-4 -2,-6 0,0 0,-1 0,-1 0,-1 0,-2 0,-2 0,0 0,-1 0,-1 0,0 0,-1 0,-1 0,0 -1,-2 -1,-2l0,0 -1,0 -1,0 -2,1c-2,0 -5,-1 -7,-1 0,0 -2,1 -3,1 -2,0 -4,-1 -6,-2 -2,-1 -3,-2 -5,-2 -1,-2 -1,-2 -1,-4 0,-1 0,-2 1,-2l5,-6c3,0 9,0 12,-1 1,0 3,-1 4,-2 1,0 2,-1 3,-2 1,-1 3,-3 4,-5 0,-1 0,-1 1,-2 2,0 4,0 5,-2 2,-4 5,-8 10,-3 4,4 5,4 8,4 3,0 2,0 5,-2 2,-2 5,-6 7,-3 2,3 4,4 6,6 3,1 6,-2 6,-2 0,0 3,-3 5,-1 2,2 6,1 8,0 2,-1 5,-2 7,0 2,2 5,2 8,0 2,-1 4,-4 6,-1 2,2 8,3 8,0 0,-2 2,-5 4,-4 2,2 6,2 8,0 3,-2 6,-6 8,-2 2,3 8,10 8,10 0,0 -1,4 -4,5 -3,2 -3,4 -2,6 0,2 -6,8 0,8 6,0 10,5 10,8 0,4 0,6 6,8 6,2 9,2 12,-2 2,-4 3,-6 4,-8 2,-2 6,-4 10,-6 4,-2 6,-2 8,-4 1,-2 4,-6 7,-5 3,2 6,0 6,0l4,-6c0,0 8,0 11,0 3,0 4,2 6,4 2,2 9,16 9,16 0,0 9,6 13,6 4,0 11,0 13,0 2,1 21,13 24,15 2,2 5,4 6,7 0,2 0,10 0,10 0,0 -4,2 -5,4 -2,2 -7,5 -4,7 4,2 8,2 8,2l6,0c0,0 3,-1 6,-1 4,0 5,-2 5,-2 0,0 4,2 6,4 3,2 2,4 3,6 0,2 1,4 3,7 2,2 2,8 2,12 0,3 0,16 0,16l-8,11h-6c0,0 -10,10 -14,14 -4,4 -3,5 0,8 4,4 -2,4 -5,8 -4,3 -6,6 -8,2 -2,-4 -6,0 -8,4 -2,4 -6,2 -8,-4 -1,-6 -4,-3 -8,-1 -4,2 -8,0 -10,-2 -2,-2 -4,-6 -7,-10 -2,-4 -1,-4 1,-6 2,-2 2,-4 -2,-6 -3,-2 -2,-4 2,-4 4,-1 2,-4 1,-6 0,-3 1,-10 2,-14 2,-4 0,-4 -3,-3 -2,2 -4,2 -6,4 -2,1 -5,4 -5,7 0,3 -4,3 -4,0 0,-3 -7,-8 -8,-10 -2,-2 -4,-4 -6,-2 -3,1 -6,0 -8,-2 -3,-3 -3,4 -6,6 -4,2 -2,4 -2,6 1,2 0,4 -2,5 -2,1 -6,1 -8,2 -2,2 -7,6 -8,9 0,2 -4,4 -4,7 0,3 0,4 -4,9 -4,5 -3,8 0,11 2,4 -3,4 -4,9 0,4 0,4 4,4 3,0 4,6 6,8 2,2 4,2 8,2 4,0 4,1 4,4 0,4 0,3 2,4 2,1 2,2 2,4 0,2 1,6 0,9 0,4 2,4 4,6 2,2 3,4 5,5 2,1 2,3 2,6 0,3 1,3 6,4 4,1 2,3 1,8 -1,5 3,8 3,8l3,4 0,0c-1,0 -1,1 -3,2z"/><path d="m209,843c0,0 -1,0 -1,0 -2,-1 -6,-3 -7,-5 0,0 -5,0 -5,0 -2,-1 -3,-2 -4,-3 0,0 0,-1 -1,-1l-2,-1 -1,0 -1,-2c0,-1 1,-2 1,-3 0,-1 0,-3 0,-4 0,-1 0,-2 0,-3 0,0 0,-1 0,-1 0,0 -3,-3 -3,-4 -2,-2 -5,-4 -7,-7l0,-3c0,-2 0,-2 -1,-4 -1,-1 -1,-1 -2,-2l0,-1c0,-1 0,-2 1,-3 0,0 1,-1 1,-1 0,-1 1,-2 1,-2l-1,-3c-3,-3 -5,-4 -7,-7 0,0 0,-3 0,-3 0,-1 0,-1 1,-2l1,-3c0,-1 4,-3 5,-4 0,0 2,-3 2,-3 0,-1 0,-2 0,-2 0,-1 0,-1 0,-2 1,0 11,3 13,3 2,0 4,1 8,1 3,0 7,-1 9,-1 0,1 0,1 1,2 5,5 14,0 15,0 8,2 7,1 13,-3 2,-1 5,-3 7,-4l0,0c2,-2 4,-3 6,-4 3,-2 4,-5 7,-6h0c1,-1 2,-1 4,-2 1,0 2,1 4,2 7,5 10,2 18,2 2,0 3,1 5,1 3,0 10,5 14,6l1,0 0,0c0,0 2,2 2,2 1,1 1,1 2,1l1,0 1,0c2,1 4,-2 4,-3 9,5 10,0 15,-4 2,-1 5,-4 7,-5 2,0 5,1 6,2 3,3 3,4 4,5 1,1 2,1 6,3 1,1 3,2 4,3 2,1 10,5 11,5 7,0 9,-3 12,-3 10,-1 13,4 24,1 4,-1 6,-1 11,-1 1,0 3,1 4,1 0,0 1,0 1,0 4,1 8,0 12,-1 4,-1 5,0 9,1 3,1 11,-4 13,-5l0,-1c0,-1 1,-2 1,-3l0,-1c-1,-2 -1,-1 -3,-2 2,-1 4,-2 6,-2 5,-2 16,-14 20,-15 0,0 0,0 0,0 1,0 2,0 2,0 0,0 0,7 1,10 0,2 4,3 6,4 3,0 2,2 2,5 0,4 0,4 2,6 2,2 0,4 -2,6 -2,2 -2,3 -2,6 0,2 0,5 -2,6 -2,2 -4,3 -4,3 0,0 0,6 2,8 2,2 2,4 0,10 -2,5 2,12 2,12l5,-3c2,-1 6,-4 6,-4l3,1c-2,1 -3,6 -2,9 0,7 -3,8 0,15 0,0 0,0 0,0 0,2 0,4 1,6 3,7 -2,9 -2,14 0,4 7,12 9,14 5,5 9,2 13,5 -1,1 -3,2 -4,4 -2,2 -5,4 -6,7 -1,2 -2,4 -3,6 -1,3 -2,6 -4,9 -2,4 -2,4 -4,8 -1,2 1,5 2,6l0,1c0,1 0,2 0,3 0,2 0,3 0,5 0,5 -2,10 -3,15 0,3 0,6 0,9 0,3 -1,7 -2,10 0,1 0,1 0,2 0,3 0,5 -1,8 -1,6 0,8 2,13 1,4 1,10 0,14 -2,5 -5,11 0,15 0,0 0,0 1,0 3,5 8,4 10,11 2,8 0,13 -5,19 -1,2 -2,4 -3,6 -2,4 -3,6 -3,11l0,0c0,1 0,2 1,3 1,3 -5,14 -7,17 -1,2 -2,4 -3,6 -2,5 -5,5 -7,10 -1,2 -2,4 -3,5 0,1 -1,2 -1,2l-2,2 0,0 -1,1 -1,1c0,0 0,0 -1,0l-2,0 -2,0c-2,0 -4,0 -5,0 -5,0 -5,6 -7,8l0,0c0,1 -1,1 -1,2 -4,9 -6,6 -10,9l-2,2c-3,3 -2,5 -3,8 -1,1 -1,2 -2,2 -2,2 -4,4 -5,7 -2,4 -6,1 -9,2l-1,0 -1,0c-3,1 -5,5 -5,8 -1,4 -7,5 -7,8 0,1 -1,2 -1,2 -6,8 -7,11 -9,20 -1,5 0,4 2,8l1,3c1,5 4,7 5,10 0,0 0,0 0,1l0,1c-1,3 0,11 1,13l0,1c1,5 2,4 -1,9 0,0 0,1 0,1 -1,4 -3,6 -3,10 0,3 2,5 4,6 4,3 2,7 8,9l0,0c1,0 4,-1 5,-1l0,0c0,0 0,0 0,0 0,0 0,0 1,0l1,0c0,1 1,2 1,3 3,5 8,-2 11,-2 0,0 0,0 0,0 0,2 -2,4 -2,6l-1,2c-1,2 -1,3 0,5l0,0c1,1 5,2 6,1l0,0c0,0 0,0 0,0 1,0 1,0 2,0l0,0c0,0 0,0 0,0 0,0 0,0 1,0 0,0 0,0 0,0 0,0 0,0 0,0 0,0 0,0 0,0 0,0 0,0 0,0 0,0 0,0 0,0 0,0 0,0 0,0 0,0 0,0 0,0 0,0 0,1 0,1 0,0 0,0 0,0 0,0 0,0 0,0 0,0 0,1 0,1 -1,0 -2,0 -2,0 0,0 -1,0 -1,-1 -1,0 -2,-1 -2,0 -2,1 -2,4 -4,4l-2,0c-2,1 -4,3 -5,4 0,1 0,2 0,2 0,1 -1,2 -2,2 0,1 -1,2 -1,3l-1,0c0,0 -1,-1 -1,-2l1,-3 0,0c-1,0 -2,0 -3,0l2,-3 0,-1 -1,0 -1,1c-1,0 -1,0 -2,0l0,2 -2,0c0,1 -1,2 -2,3 -2,1 -4,-1 -7,0l-1,-1 -2,1 -1,2 1,1c1,0 1,0 2,0 0,0 0,0 0,0 0,0 0,0 0,0 1,0 1,0 2,0 0,0 2,1 3,2l0,1c-1,1 -1,1 -2,1 -2,1 -2,1 -4,3 0,2 0,4 -1,5 0,-1 -1,-2 -2,-3l-1,0 -1,0c-1,1 -1,2 -2,3 0,0 0,0 0,0 0,0 0,0 0,0 -1,0 -2,0 -3,1 -1,1 -2,3 -3,4 0,0 -1,0 -1,0l-2,1c0,0 -1,0 -1,0 0,0 -2,0 -2,0 -1,1 -2,1 -3,1l0,1 0,2 0,1 -1,0c-3,1 -2,5 -7,5 -2,2 -4,4 -4,6 0,1 -2,1 -2,1l0,1c0,2 -1,4 -2,5 0,0 -1,1 -1,2 -1,1 -1,3 -2,4 -1,0 -2,1 -3,1 0,0 0,0 0,0 -1,0 -3,0 -4,0 -1,0 -2,0 -2,1 0,0 0,0 0,0 0,0 -1,0 -1,1v0c-1,2 0,5 1,7l0,1c-1,0 -3,0 -4,1l-1,1 1,2 -1,2 -1,1c-2,0 -3,-1 -4,-2l-2,0 -1,0 0,-1 1,-1 0,0c-1,0 -4,1 -5,1 -1,-1 -2,-2 -3,-3 0,0 -1,-1 -1,-1l1,-2 -1,0c-1,0 -3,1 -4,2 -1,0 -1,0 -2,0 0,0 -1,-1 -1,-1 -2,-2 -2,-1 -2,-3l0,-1 0,0 -1,0 -1,-1c0,-1 0,-2 0,-3l0,-1c-2,0 -3,-1 -5,-2l0,-1v0l-5,0c-1,-1 -2,-2 -2,-2l-2,-1c0,0 0,0 -1,0 0,0 0,0 0,0 0,0 0,0 0,0 -1,0 -2,0 -2,0 0,0 0,0 0,0 0,0 0,0 0,0 0,0 0,0 0,0 0,0 0,0 -1,0l-2,0c0,0 -5,2 -8,0 -4,-2 -9,-2 -9,-2 0,0 -3,-3 -4,-6 0,-3 0,-8 0,-8l7,-6c0,0 4,-6 5,-8 0,-2 6,-13 6,-13l6,-8 7,-4 0,-1 1,-2c2,-1 6,-3 7,-4 1,-2 0,-6 0,-8 0,-1 -1,-1 -1,-2 0,-1 0,-3 0,-5 1,-2 3,-3 4,-4 1,0 2,0 2,-1 3,-1 5,-3 9,-4 2,-2 4,-5 6,-8 1,-1 1,-1 2,-2 0,0 0,-1 0,-1l1,-2c0,-1 0,-3 0,-5 0,0 2,-4 2,-4 0,-1 1,-1 1,-2 1,-1 0,-1 2,-3 0,0 0,0 1,-1 1,-1 3,-1 4,-2 1,0 2,-2 3,-3 2,-2 3,-4 2,-7l-1,-1 -2,-2c0,0 0,-1 0,-1 -2,-4 -1,-5 -2,-10 0,0 1,-4 2,-4 0,0 0,-2 0,-2 0,-1 0,-3 0,-4 0,-1 1,-3 2,-4 1,-1 2,-2 2,-3 0,-1 1,-3 1,-4 0,-1 -1,-1 -1,-2 -1,-1 -3,0 -4,0l0,-1c0,-1 0,-5 -1,-6 0,-1 -3,-3 -3,-3l0,-1 2,-3c0,-1 -1,-4 -1,-5 1,-2 3,-5 4,-6 1,-1 2,-1 3,-2 0,0 0,-1 0,-2l-2,-2c-2,-1 -5,-2 -7,-2 -1,-1 -5,-4 -6,-5 -1,-1 -3,-1 -4,-1 -1,0 -1,-1 -2,-1 0,0 0,0 0,0l-2,0 -1,0c-1,-1 -2,-4 -2,-5 0,-1 -2,-2 -3,-3 0,-2 -2,-2 -3,-4 0,-1 0,-3 1,-4 1,-2 7,-7 8,-9 0,-1 0,-4 0,-5l2,-4 1,-2c3,0 5,1 8,-1l3,-5c2,-1 7,-2 8,-3 0,-1 0,-2 1,-3 -1,-2 -1,-7 -1,-9 0,0 1,0 1,0 3,-1 7,-1 10,-3 1,-1 2,-2 3,-3 0,-1 1,-2 1,-3 1,-1 2,-3 3,-4 1,-1 1,-3 1,-4 0,0 2,-2 2,-2 0,-2 -1,-3 -2,-3 -1,-1 -1,-1 -2,-1 -1,-1 -2,-1 -3,-1l-1,0 0,0 0,-2c-1,0 -2,-1 -2,-2l3,-3c0,-1 0,-3 0,-4 1,-1 1,-1 2,-2 1,-1 1,-6 1,-7 0,-1 0,-2 0,-3 -1,-1 -2,-3 -2,-5 1,-2 2,-5 2,-7 0,0 -1,-2 -1,-2 0,-1 0,-2 0,-3 0,-1 0,-2 -1,-3l1,-1 1,0c2,-1 3,-3 4,-4l0,-3c1,-1 2,-2 3,-3l1,-2c1,-1 0,-4 0,-5 0,-1 0,-2 0,-3l1,0 1,-1c1,-1 1,-3 2,-4l3,0c1,0 2,-2 3,-3 0,0 0,-2 0,-2 0,0 0,-1 1,-1 1,-2 2,-3 2,-5 0,-2 -6,-7 -7,-8l-1,0c-1,-1 -2,-2 -3,-2 -1,-1 -4,-4 -5,-5 -1,-1 -3,-1 -4,-1l-3,-4 0,0c0,-1 0,-2 0,-3 0,-2 -1,-7 -2,-9 1,-2 2,-7 2,-9l0,-4c0,-1 0,-1 0,-2 0,0 -1,-2 -1,-2 -1,-1 -1,-3 -2,-4 0,-1 0,-3 0,-4 0,-1 -1,-2 -2,-3 0,0 -1,-2 -1,-2 0,-1 2,-5 2,-6 0,-1 -2,-3 -2,-3 0,0 -2,-1 -2,-1 0,0 -1,0 -2,0 -3,0 -4,-1 -3,-4l0,-7 1,-1v-1 -3c0,-2 2,-3 2,-6l-2,-5 2,-4 2,0 2,-1c5,0 3,1 8,-1 0,0 1,-2 1,-2 0,-1 0,-3 0,-5 1,-1 3,-3 3,-4 0,-1 -1,-4 -2,-5 0,0 0,-1 0,-1 0,0 0,0 0,0 0,0 0,0 0,0 0,0 0,0 0,0 0,0 0,-1 0,-1 0,0 0,0 0,0 0,0 0,0 0,0 0,0 0,-1 1,-2 0,0 0,0 0,-1 0,0 0,0 0,0 0,-1 -1,-1 -1,-2 -1,-1 -1,-2 -2,-3 -1,-1 -3,-1 -4,-2l-1,-1 -1,-1 -5,0 -1,-1 -1,0c0,0 -1,1 -1,1 0,1 -1,2 -1,3 -1,1 -2,2 -4,2 -1,0 -2,0 -3,0 -2,0 -4,0 -5,0 0,0 -1,0 -1,0 -1,0 -3,0 -4,0 -1,0 -1,0 -2,0l-2,-2c-1,-1 -3,-1 -5,-1l0,-1c-1,-2 -1,-2 -3,-3l-2,0c-1,0 -1,-1 -2,-1 0,0 -1,-2 -2,-2 -1,-1 -3,-1 -4,-2 0,0 -1,-1 -1,-1 -1,-1 -5,-1 -6,1 -2,0 -3,0 -5,0l-3,0c0,0 -2,1 -3,1 -2,-1 -4,-1 -7,-1 -1,0 -2,0 -2,0 -1,0 -3,0 -5,0 -2,0 -3,-1 -5,-1l-1,1c0,2 -2,5 -2,6 -1,1 -3,4 -4,5 -3,4 -7,8 -10,12h0c-2,2 -4,4 -6,5 -1,1 -2,1 -2,2 -1,1 -2,2 -3,3 0,0 -2,1 -2,1 0,-1 -1,-3 -1,-3l-1,-2c0,0 0,-1 -1,-1 -1,0 -7,-4 -8,-4 -1,0 -2,0 -3,-1 -2,-1 -4,-2 -6,-3 -1,-1 -4,-1 -5,-1l-1,-1 -1,-1c-1,0 -2,0 -2,0 -2,0 -4,1 -6,2 -1,1 -1,3 -2,4 0,1 -1,2 -2,2 0,1 0,2 -1,3 0,0 0,0 -1,1 -1,2 -2,2 -4,2z"/><path d="m406,1284c0,0 0,0 0,0 0,0 0,0 0,0z"/><path d="m866,519c1,1 4,5 5,5 0,0 1,0 2,1l0,0c0,0 -2,3 -5,5 -3,2 -6,2 -8,0 -2,-1 -4,-2 -6,1 -2,3 -6,6 -10,7 -5,2 -8,6 -10,6 -2,0 -3,4 -3,6 0,2 0,10 0,12 1,2 2,4 -2,8 -4,3 -2,8 -1,10 0,2 2,10 2,10 0,0 0,4 -3,5 -2,1 -6,6 -6,6 0,0 -3,2 0,6 4,4 5,6 5,6 0,0 3,0 5,0 2,0 3,-2 4,2 1,3 2,5 -1,6 -3,1 -6,1 -1,6 5,5 4,9 4,9 0,0 2,0 -1,5 -4,4 -10,9 -10,12 0,4 0,4 -3,4 -2,0 -2,3 -2,5 0,2 -3,2 -5,4 -2,2 -8,4 -8,4 0,0 -2,6 0,10 2,4 3,6 2,8 0,2 2,2 5,2 3,0 4,2 1,5 -3,3 -8,2 -7,6 0,4 -4,8 -2,11 2,3 -1,7 0,9 2,2 6,3 2,7 -4,4 -1,12 -1,12h0c0,0 -4,2 -4,6 0,4 -3,8 -3,8l-6,2 -2,1c-1,0 -2,-1 -3,-1 -1,0 -7,2 -8,2 -2,1 -7,6 -10,5 -1,-1 -4,1 -6,1l-3,3c0,0 0,6 2,8 2,3 1,3 -2,6 -2,4 -2,6 -2,6 0,0 -4,2 -10,1 -6,-2 -8,7 -8,10 0,2 0,4 -3,6 -2,2 -10,4 -10,4l-4,10 -4,-2c0,0 -4,2 -7,2 -3,1 -8,10 -8,10l-7,2 -4,8 1,6c0,0 2,4 2,7 0,3 -4,4 -4,4 0,0 2,3 4,5 2,2 6,8 6,8l2,3c-1,1 -1,2 0,4 1,3 1,2 1,5 0,2 1,4 3,5 2,1 2,2 3,3l-11,6 -2,4c0,0 -2,6 -4,4 -2,-2 -8,-2 -8,-2 0,0 -2,2 -2,6 0,3 -4,4 -6,4 -2,0 -8,1 -8,1l0,-5 -11,-4c0,0 0,-3 0,-6 0,-2 -1,-5 -3,-6 -2,-2 -7,-6 -10,-8 -2,-2 -2,-3 -1,-5 0,-2 -2,-4 -2,-4l-10,4c0,0 -4,0 -4,-2 -1,-2 -4,-3 -7,-4 -3,0 -4,-4 -4,-4 0,0 -4,2 -4,5 0,2 -2,3 -5,3 -2,0 -2,0 -4,-4 -2,-3 -6,0 -8,2 -2,2 -5,0 -7,-2 -2,-2 -4,-3 -4,-5 -1,-2 -3,-4 -5,-4 -2,0 -4,0 -6,2 -2,2 -4,2 -8,0 -4,-2 -6,0 -8,4 -3,4 -3,7 1,10 4,4 0,4 -4,6 -3,2 -6,5 -6,8 0,4 -6,8 -9,4 -2,-3 -4,-2 -6,2 -3,4 -1,2 0,5 1,2 2,4 -1,6 -3,2 -4,10 -4,12 0,3 -2,6 -4,6 -2,0 -3,4 -4,6 0,2 -2,4 -5,4 -2,0 -5,0 -8,0 -2,0 -4,2 -4,6 0,4 -2,4 -6,4 -3,0 -8,1 -8,1l-2,0c0,-1 0,-1 0,-2 0,-3 1,-7 2,-10 0,-3 0,-6 0,-9 1,-5 2,-10 3,-15 0,-2 0,-3 0,-5 0,-1 0,-2 0,-3l0,-1c-1,-1 -3,-5 -2,-6 2,-4 1,-5 4,-8 2,-3 3,-6 4,-9 1,-2 2,-4 3,-6 1,-3 4,-5 6,-7 1,-2 2,-3 4,-4 -3,-3 -8,0 -13,-5 -2,-2 -9,-11 -9,-14 0,-6 5,-7 2,-14 -1,-2 -1,-4 -1,-6 0,0 0,0 0,0 -4,-7 0,-7 0,-15 0,-2 0,-8 2,-9l-3,-1c0,0 -4,3 -6,4l-5,3c0,0 -4,-7 -2,-12 2,-5 1,-7 0,-10 -2,-2 -2,-8 -2,-8 0,0 2,-2 4,-3 2,-2 2,-4 2,-6 0,-2 -1,-4 2,-6 2,-2 5,-4 2,-6 -2,-2 -2,-2 -2,-6 0,-4 0,-4 -2,-5 -3,0 -6,-1 -6,-4 0,-2 -1,-10 -1,-10h0c9,0 11,1 20,-3 4,-2 5,2 15,-5 4,-3 10,-3 12,-8l0,0c1,-3 7,-7 9,-9 6,-4 4,-5 13,-3 11,2 12,-6 21,-7 3,-1 6,-2 9,-2l0,-2 0,-6 4,-4c0,0 4,-3 4,-6 0,0 6,0 6,-6 0,-5 -2,-8 -4,-8 -2,-1 -2,-2 -4,-5 -2,-3 -1,-4 -4,-6 -2,-1 -4,-2 -3,-5 2,-4 1,-9 4,-12 4,-3 4,-4 2,-6 -1,-2 -2,-4 -4,-4 -3,0 -8,0 -3,-4 4,-4 2,-6 2,-9 0,-2 0,-6 2,-10 2,-4 1,-6 4,-8 2,-2 4,-2 4,-6 0,-4 -2,-6 0,-8 1,-2 4,-10 4,-10l4,-8 0,-2c0,0 3,-3 3,-3 4,-1 9,0 13,-2 2,-1 3,-4 4,-6 0,-1 5,-4 7,-5 0,0 2,-10 4,-13 2,-3 0,-4 -3,-6 -3,-1 -4,0 -2,-4 2,-4 3,-6 2,-8 0,-2 2,-6 3,-8 2,-2 5,-5 1,-8 -4,-4 -10,-8 -12,-10 -2,-2 -1,-7 -1,-7l4,-5c0,0 4,4 6,6 2,2 4,4 4,4 0,0 5,-2 8,0 3,2 4,2 6,0 2,-2 4,-3 6,0 2,3 4,5 0,8 -3,2 -4,5 -2,6 2,2 4,2 6,4 2,2 7,1 8,-2 1,-3 7,-10 10,-13 3,-3 4,-4 8,-5 4,0 10,-4 12,-4 2,-1 6,-4 7,-6 2,-2 10,-6 14,-6 4,0 8,-4 12,-4 4,0 8,-4 6,-8 -2,-3 -2,-7 -2,-7l4,-6c0,0 4,-2 0,-4 -3,-2 -2,-3 0,-4 2,-2 4,-4 6,0 2,3 5,4 8,4 3,-1 5,-2 8,-2 3,0 11,1 11,1 1,1 3,2 4,3l2,2c0,0 0,2 0,2l-1,3c1,4 6,6 10,5 1,0 2,-1 4,-1 1,0 2,1 4,1 1,2 2,4 3,7 1,2 2,3 3,4 1,1 1,3 1,4 0,0 1,1 1,1 0,1 4,6 4,6 0,1 0,1 0,2 0,3 0,5 3,7l2,0 2,8c1,1 1,1 2,2l4,-2c0,0 4,-1 8,-2 4,0 6,0 6,0 0,0 4,4 7,6 3,2 2,4 0,6 -2,3 0,5 0,5 0,0 1,0 1,0 0,0 0,0 0,0 0,0 0,0 0,0 0,0 0,0 0,0l4,-2 3,3c1,0 2,1 3,1 0,0 0,0 0,0l5,-3 2,0 0,1 0,2 1,1c1,0 3,0 4,0 0,0 1,0 1,0l2,1c2,1 4,3 5,3l2,-1z"/><path d="m1191,1486c0,-2 -1,-6 -1,-8 0,0 0,-1 0,-1 1,0 2,0 2,0 1,0 2,2 3,4 1,2 2,3 4,4 2,2 7,1 7,1 3,-1 4,-2 8,-4 1,0 4,-2 5,-2 3,-5 -7,-6 -5,-11 1,-1 1,-2 1,-4 0,0 1,-1 1,-1 1,-1 2,-4 1,-6 -1,-2 -4,-2 -9,1l0,0c0,-4 1,-4 4,-6 2,-1 8,0 5,-5 -1,-2 -3,-4 -3,-6 2,0 4,1 7,1 1,0 2,0 3,0 2,2 3,7 7,5 2,-1 2,-2 3,-3 6,-3 3,-4 4,-8 1,0 2,1 4,2 4,4 6,4 10,1 6,-4 6,6 12,6 1,0 2,0 2,-1l1,0c0,0 0,0 0,0 1,2 4,0 5,-1 2,-1 4,3 8,-2l1,-1c2,0 6,-2 6,-2 1,-1 1,-2 0,-3l1,0c0,0 1,0 1,0 0,0 1,1 1,1 3,1 3,3 6,5 -1,1 -1,1 -1,2 0,2 3,5 5,6l1,0c0,0 0,0 0,0 1,1 2,2 4,2 2,0 6,-1 7,0 0,0 0,0 0,0 0,1 0,2 1,3 5,2 6,-4 4,-4 0,0 0,0 0,0 4,2 5,1 8,0 0,0 0,0 2,0 3,-1 2,-3 3,-4 1,0 3,-1 5,-1 1,3 6,0 7,-1 2,0 3,0 4,-2l0,0c1,0 1,1 2,1h1c1,0 2,-1 3,-2 2,0 6,-2 7,-4 2,4 6,2 8,2 2,2 1,2 4,2 2,2 2,2 5,1 2,0 7,4 9,6 1,1 3,2 4,3 6,4 6,0 10,2l1,-1 1,-4c0,0 0,-2 -2,-4 -2,-2 0,-4 2,-6 2,-2 2,-4 5,-8 2,-3 6,4 6,4 1,1 2,1 4,1 3,1 6,2 10,3l5,0c2,0 4,0 6,0 1,1 2,3 2,4 1,1 4,2 5,3 2,1 5,3 7,4 0,0 3,1 4,2 2,0 3,-2 5,-3l1,0c0,0 4,4 8,2 2,0 6,1 7,1 1,-1 4,-2 5,-2 1,0 3,0 4,0 3,0 4,1 7,1 2,0 13,-3 14,-3 3,0 5,2 7,2l1,-1 0,-1c0,-2 -3,-2 -3,-4 0,-1 -1,-5 -1,-5 1,-1 3,-1 3,-1 1,0 2,-1 3,-2 2,-1 8,0 10,1 2,1 2,2 3,3 1,1 2,1 3,2 2,1 1,4 2,5 1,1 4,4 4,5 2,1 9,3 9,3 1,0 3,0 4,0 3,0 5,1 7,2 0,0 4,2 6,3 0,0 4,-1 6,-1 1,1 1,2 3,2 4,-1 2,-3 4,-4 2,0 4,2 6,2l1,-1c0,1 0,1 0,1 0,0 2,2 2,2 1,1 4,-1 6,0 0,0 2,3 3,3l3,1c1,0 2,0 3,0 1,2 4,3 6,2l1,-1c0,0 0,0 1,0 1,-2 3,-4 4,-5l1,0 1,0c0,5 0,10 0,15 0,4 0,8 0,12 0,3 0,6 0,8 0,4 0,7 0,11 0,8 0,15 0,23 0,3 0,6 2,9 0,1 1,2 2,2 0,1 1,1 1,2 1,3 2,7 4,10 0,1 2,2 3,3 2,0 4,0 5,1 1,1 1,3 2,5l1,0 0,-2c1,-1 2,-1 3,-1 0,1 1,2 2,2l2,0 1,1 -1,2c0,1 2,3 2,4l0,1c-1,0 -2,1 -2,1 -2,2 -2,2 -2,5 0,2 0,3 0,5 0,0 1,2 1,2 0,1 2,1 2,2 0,0 -1,2 -1,2 0,1 0,4 1,4l1,0 1,1c0,1 0,4 1,4l2,0 1,1 0,3c0,1 2,1 2,1 1,0 1,0 2,0 0,0 2,1 2,1 1,1 2,1 3,2l1,0 0,-1 -1,-2 0,-1 1,0 0,1 1,1c0,1 -1,3 0,4l1,0c1,-1 1,-2 2,-2 0,0 0,0 1,0 0,0 0,0 1,0 0,0 0,0 1,0 0,0 1,0 1,0l1,-1 1,0c0,0 0,11 0,14 0,3 -3,7 -8,7 -5,0 -8,6 -8,6l-7,-6 -5,-2 -8,14 3,5c0,0 -2,2 -3,7 -1,4 0,6 1,10 1,4 -2,5 -9,8 0,0 -7,2 -9,0 -2,-2 -6,-2 -8,-1 -2,1 -3,2 -6,0 -4,-1 -4,2 -6,4 -1,2 -6,2 -8,4 -3,2 -7,2 -9,0 -2,-2 -3,-2 -5,2 -2,4 -5,5 -8,2 -4,-2 -7,0 -7,2 0,2 0,4 -2,6 -2,2 -5,-1 -5,-3 0,-2 -4,-8 -4,-11 0,-4 -2,-5 -4,-2 -2,2 -4,2 -6,-1 -2,-4 -6,0 -6,0 0,0 -4,4 -6,2 -2,-2 -3,-2 -4,0 -1,2 -2,2 -6,2 -4,0 -3,6 -3,10 0,4 0,5 2,9 2,4 0,4 -2,6 -2,2 -1,6 -1,6 0,0 2,3 4,6 2,2 2,4 2,4 0,0 -2,2 -8,4 -6,2 -4,6 -4,6 0,0 -7,0 -10,0 -3,0 -6,0 -9,-2 -3,-2 -6,0 -10,2 -4,2 -4,4 -5,6 0,2 -4,3 -8,4 -4,0 -4,4 -4,6 0,2 -2,3 -6,3 -4,0 -4,-1 -4,-4 0,-2 -4,-1 -6,-1 -2,0 -4,0 -4,2 0,2 -5,2 -5,2 0,0 -8,-7 -10,-9 -2,-2 -4,-2 -9,0 -4,2 -7,-2 -10,-4 -4,-2 -7,-3 -11,-6 -4,-2 -6,-2 -10,-2 -5,0 -10,-4 -10,-4h-8l-2,-6 -12,2 1,-2c0,0 -1,-2 -1,-2 0,0 -3,-2 -3,-2 0,0 -1,0 -1,0l-3,-1c-2,0 -4,0 -6,0 -1,0 -4,-2 -5,-2 0,0 -4,0 -4,0 -1,0 -3,0 -4,0 -1,0 -4,-1 -5,-2 0,0 -1,-1 -1,-1 -1,0 -2,0 -3,-1 -4,-1 -8,-1 -12,-2l-3,-1c-2,-1 -5,-2 -7,-3 -4,-2 -8,-3 -12,-5 -3,-1 -6,-2 -9,-2 -1,-1 -1,-1 -2,-2 -2,-2 -2,-2 -3,-3 -1,0 -1,-1 -4,-2l0,0c0,-1 -1,-1 -2,-2 -3,-4 -4,-10 -6,-15 0,-1 -1,-3 -1,-4 0,-1 0,-2 1,-3 0,0 1,-2 1,-2 0,0 0,-1 0,-1l0,-2c-1,-3 -3,-5 -5,-7 -1,-1 -2,-2 -3,-3 0,0 -2,-1 -3,-1 -1,-1 -2,-1 -2,-2 -1,-2 -2,-4 -3,-6 -2,-2 -5,-3 -8,-5 -2,-1 -3,-2 -5,-4l0,-1c-1,-2 -2,-4 -3,-6 -1,-1 -2,-2 -2,-3 -2,-3 -1,-7 -2,-10 -1,-2 -2,-3 -3,-4 0,0 0,0 0,0 0,0 -1,-1 -1,-1 -3,-2 -6,-4 -9,-5 -1,-1 -2,-1 -3,-2 -2,-2 -7,-6 -8,-9l-2,-3c0,-1 -1,-1 -1,-1 -1,-2 -1,-5 -2,-7 0,0 0,0 0,0 1,-3 1,-6 2,-9 0,-3 0,-6 1,-9 0,-2 2,-6 3,-8 1,-2 2,-4 2,-6 0,0 0,-1 0,-1 0,-1 0,-3 0,-4 0,-3 -1,-6 -2,-9 0,-1 -1,-3 -1,-4 -1,-2 -3,-6 -3,-7 0,-1 0,-5 0,-7 1,-2 3,-7 3,-8 -1,-2 -2,-4 -3,-5 0,-1 0,-3 0,-4 0,-1 -1,-3 -2,-4z"/><path d="m1872,1878 4,2c0,0 -2,2 -4,4 -2,2 -1,4 0,6 1,2 1,5 2,8 2,2 1,4 -1,6 -2,2 -2,2 -4,0 -2,-2 -5,2 -5,2 0,0 0,2 4,5 4,2 2,3 4,4 2,2 2,2 0,5 -2,2 -1,2 1,6 0,1 1,2 1,2 0,0 0,0 0,0 0,0 0,0 0,0 0,0 0,0 0,0 0,0 0,1 0,1 0,0 0,0 0,0 0,0 0,0 0,0 0,0 0,0 0,0 0,0 0,0 0,0 0,0 0,0 0,0 0,1 -1,1 -1,1 -1,1 -2,1 -2,1 0,0 -1,1 -1,1 0,0 -1,1 -1,2l0,1 0,2c1,1 2,2 2,3 0,1 1,2 1,3l-1,1c-1,0 -4,0 -5,0l-1,3 -1,1c-1,0 -2,0 -3,0 -2,-2 -3,-3 -5,-5 -1,0 -1,0 -2,0l0,0c0,0 -6,-2 -4,-6 2,-4 3,-3 2,-6 -1,-3 0,-8 -3,-8 -3,0 -8,0 -8,0 0,0 -6,-16 -6,-21 -1,-5 -5,-7 -6,-4 0,4 0,4 -4,5 -4,2 -4,5 -4,5l-4,4c0,0 -2,1 -5,0 -3,0 -4,-4 -6,-4 -2,0 -7,2 -9,-2 -2,-4 -8,-9 -9,-12 -2,-4 -3,-6 -6,-6 -3,0 -5,-2 -6,-4 -1,-2 -2,-4 -4,-4 -2,0 -15,0 -17,0 -2,0 -6,1 -6,4 -1,2 -8,4 -10,4 -2,1 -7,3 -11,3 -4,0 -5,0 -8,2 -3,1 -13,4 -13,4 0,0 -6,-2 -9,-4 -4,-2 -3,-4 -6,-3 -4,0 -6,-2 -6,-2l-6,-1 -6,4c0,0 -9,2 -9,5 0,3 -4,14 -5,16 0,2 0,4 -4,4 -4,0 -7,7 -7,7 0,0 -4,0 -8,-2 -4,-2 2,-5 4,-7 2,-2 5,-4 5,-4 0,0 0,-8 0,-10 0,-2 -3,-5 -6,-7 -2,-2 -22,-14 -24,-15 -2,-1 -9,-1 -13,0 -4,0 -13,-6 -13,-6 0,0 -8,-14 -9,-16 -2,-2 -2,-4 -6,-4 -3,0 -11,0 -11,0 0,0 -6,-2 -12,-6 -5,-4 -2,-6 -2,-8 0,-2 2,-3 5,-4 2,0 2,-4 2,-6 0,-3 3,-5 8,-2 4,4 10,0 14,2 4,2 8,4 8,2 0,-2 2,-8 2,-8 0,0 0,-2 4,-2 4,0 7,0 8,2 2,2 3,2 6,1 4,0 5,-1 8,-1 3,0 4,-3 4,-3 0,0 0,-4 6,-4 6,0 8,0 10,2 2,2 2,2 4,1 2,-1 4,-2 2,-6 -2,-4 -5,-6 -2,-8 2,-2 4,-5 6,-6 2,-2 2,-4 0,-6 -2,-2 -5,-4 -6,-6 0,-3 -2,-5 3,-4 4,1 4,0 4,-2 0,-2 2,-4 -2,-6 -4,-2 -2,-4 -7,-4 -6,0 -9,-3 -7,-6 2,-2 2,-6 6,-6 4,0 4,-1 5,-4 2,-2 4,-3 4,-8 0,-4 -2,-7 1,-8 4,-1 6,-4 6,-8 0,-3 2,-7 4,-9 2,-2 4,-2 7,-2 2,-1 2,-4 3,-6 1,-2 3,-8 4,-11 1,-2 2,-5 5,-7 3,-2 6,-2 8,0 1,3 2,2 5,2 3,0 9,1 12,0 2,-2 4,-8 7,-4 3,4 9,0 11,-2 2,-2 4,-2 6,-3 2,0 6,0 9,-3 2,-2 3,-5 3,-7l1,-1c3,-2 2,-4 1,-7 0,-3 4,-5 5,-8l0,0c0,0 0,0 1,-1 2,-1 2,-2 5,-2l0,0 0,1c4,2 6,6 10,9l2,1c0,0 8,2 8,2 1,0 3,-1 4,0 0,0 3,1 3,1 1,0 3,2 3,3 0,0 1,2 1,3 1,0 3,1 4,2 1,1 3,6 4,7 0,1 1,1 2,1 1,1 1,2 2,2 0,0 1,0 1,1 1,1 1,1 2,1 0,0 0,0 0,0 0,0 0,0 0,1 0,0 0,0 0,0 0,0 0,0 1,1l1,1 2,-3c1,0 3,1 4,1 1,0 2,-1 3,-2 0,0 2,0 2,0 1,1 2,1 3,2l2,-3c1,-1 6,-1 8,-1l2,-2 1,0c1,1 2,2 2,3 0,2 -3,4 -3,7 0,2 2,4 3,5 0,0 1,2 1,2l-2,4c0,0 0,0 0,0 0,1 -1,2 -1,2 0,1 -1,3 -1,4 -1,1 -1,3 -2,4 -1,3 -2,5 -3,8 0,1 -4,7 -5,8 0,0 -2,1 -2,1 -2,0 -8,-1 -10,-1l-3,1c-1,0 -3,1 -4,2 -1,1 -1,3 -3,3l-3,0 -2,2 -2,0c-2,1 -5,3 -6,5 -1,0 -1,0 -2,0 -1,0 -1,0 -2,0 -1,0 -1,0 -2,0 -1,0 -2,1 -2,2l0,1 0,3c0,3 1,5 2,8 -2,3 -4,8 -3,12l1,1 1,0 2,1c2,0 5,0 8,1 0,1 1,3 2,4 1,1 1,2 1,3 0,2 -2,6 -2,8 0,0 0,1 0,1l2,1 1,0 0,5 1,1c1,0 2,-1 2,-1 1,0 2,0 3,0l1,-1c2,0 3,3 4,4 0,0 2,1 2,1l2,2c1,2 1,6 1,9l3,1c2,3 -1,6 3,8l0,3c0,1 2,2 3,2l1,2c0,1 -1,3 -1,4l1,1 2,0c0,0 1,1 1,1 0,0 2,1 2,1 1,0 2,0 3,0 0,0 2,-1 2,-1 0,0 2,0 3,0 0,0 0,0 0,0 0,0 0,0 0,0 1,0 3,-1 4,-1l2,1 3,1 3,3 1,0c1,-1 3,-3 4,-3 0,1 0,4 -1,5 0,0 1,3 1,3 0,2 0,6 -1,8l1,3c2,1 2,2 3,2 1,0 1,0 4,1 0,0 1,0 1,0l1,-1c1,0 2,0 3,1 0,0 0,0 1,0 0,0 1,0 1,0 0,0 0,0 0,0 1,1 2,1 4,-1 1,1 1,2 1,3 0,0 -1,2 -1,2 0,2 1,2 2,4l0,2 0,1 0,1c0,1 1,3 2,4 0,0 1,1 1,1z"/><path d="m1875,1930c0,0 0,0 0,0 0,0 0,0 0,0z"/><path d="m1874,1931c0,0 0,0 0,0 0,0 0,0 0,0z"/><path d="m1874,1932c0,0 0,0 0,0 0,0 0,0 0,0z"/><path d="m1873,1932c0,0 0,0 0,0 0,1 -1,1 -1,1 0,0 1,-1 1,-1z"/><path d="m1780,1752c1,0 1,0 2,0 -1,0 -1,0 -2,0z"/><path d="m1762,1648 0,1c-1,2 -2,4 -1,6 -1,1 -2,3 -2,5 0,0 1,4 1,4 -1,0 -1,0 -2,0l0,1 0,0c-2,0 -2,1 -5,2 0,0 0,0 -1,1l0,0c-1,2 -6,5 -5,8 0,3 2,5 -1,7l-1,1c0,2 -1,5 -3,7 -3,2 -6,2 -9,3 -2,0 -4,2 -6,3 -2,2 -8,5 -11,2 -3,-4 -4,3 -7,4 -2,2 -8,0 -12,0 -3,0 -4,1 -5,-2 -1,-3 -4,-2 -8,0 -3,2 -4,4 -5,7 -1,2 -3,9 -4,11 -1,2 0,5 -3,6 -2,1 -5,0 -7,2 -2,2 -4,6 -4,9 0,3 -3,6 -6,8 -4,1 -1,4 -1,8 0,4 -2,5 -4,8 -2,2 -2,4 -5,4 -4,0 -4,4 -6,6 -2,2 2,5 7,6 6,0 3,3 7,4 4,2 2,4 2,6 0,2 0,4 -4,2 -4,-1 -4,1 -3,4 0,3 3,5 6,6 2,2 2,4 0,6 -2,2 -3,4 -6,6 -2,2 0,4 2,8 2,4 0,5 -2,6 -2,1 -3,1 -4,-1 -2,-2 -4,-1 -10,-2 -6,0 -6,4 -6,4 0,0 -2,3 -4,3 -3,0 -4,0 -8,1 -4,0 -5,2 -6,-1 -2,-2 -5,-2 -8,-2 -4,0 -4,2 -4,2 0,0 -2,6 -2,8 0,2 -4,0 -8,-2 -4,-2 -10,2 -14,-2 -4,-4 -8,-2 -8,2 0,3 0,6 -2,6 -2,0 -4,2 -5,4 0,2 -4,5 2,8 5,4 12,6 12,6l-4,6c0,0 -2,2 -6,0 -3,-2 -6,2 -7,5 -1,2 -4,3 -8,4 -4,2 -8,3 -10,6 -2,2 -2,4 -4,8 -2,4 -6,4 -12,2 -6,-2 -6,-4 -6,-8 0,-4 -4,-8 -10,-8 -6,0 0,-6 0,-8 0,-2 0,-5 2,-6 3,-2 4,-5 4,-5 0,0 -6,-6 -8,-10 -2,-3 -5,0 -8,2 -3,2 -6,2 -8,0 -2,-2 -4,1 -4,4 0,2 -6,2 -8,0 -2,-2 -4,0 -6,1 -2,1 -6,2 -8,0 -2,-2 -5,0 -7,0 -2,1 -6,2 -8,0 -2,-2 -5,1 -5,1 0,0 -3,3 -6,2 -3,-1 -4,-2 -6,-6 -2,-3 -4,0 -7,3 -2,2 -2,2 -5,2 -3,0 -4,0 -8,-4 -4,-4 -8,-1 -10,3 -1,2 -3,2 -5,2 0,-1 0,-1 1,-2 0,0 0,-1 0,-1 0,-1 0,-2 0,-3 0,-1 0,-2 0,-3 0,-1 1,-3 1,-4 -1,-2 -1,-5 -2,-7 0,0 0,-2 0,-2 1,-2 3,-6 4,-8 0,0 0,0 0,0l1,-1 1,-1 1,-2c0,-2 0,-4 0,-6 0,-1 0,-3 1,-4 0,0 0,-1 0,-1 0,0 1,-4 1,-5 0,0 0,-7 0,-8l-1,-2c-1,-2 -3,-3 -4,-5 -1,-1 -3,-7 -3,-8 -2,-1 -5,-2 -7,-3 -1,-1 -2,-1 -3,-2 -1,0 -1,-1 -2,-1 -1,0 -3,0 -4,0l-3,-2c-1,0 -2,-2 -3,-2 -1,-1 -5,0 -7,1 -1,1 -2,2 -3,3 0,0 -3,0 -3,0 -1,0 -1,0 -2,0 -1,0 -3,-1 -4,-2 -1,-1 -2,-2 -3,-3l-1,-2 1,-2 0,-1 -1,-1 0,0c-1,0 -1,0 -2,0 -1,-1 -2,-2 -3,-4l-1,-3c0,-1 0,-2 0,-3 0,0 -1,-2 -2,-3 -2,-5 -4,-10 -6,-15 0,-1 -2,-4 -2,-4 2,-3 3,-5 5,-8 1,-2 2,-5 4,-7l1,-1c2,-1 5,0 7,0 0,0 1,0 2,0l12,-2 2,6h8c0,0 4,4 10,4 5,0 6,0 10,2 4,2 8,4 11,6 4,2 6,6 10,4 4,-2 6,-2 9,0 2,2 10,9 10,9 0,0 4,0 5,-2 0,-2 2,-2 4,-2 2,0 6,-2 6,1 0,2 0,4 4,4 4,0 6,0 6,-3 0,-2 0,-6 4,-6 4,0 7,-1 8,-4 0,-2 1,-4 5,-6 4,-2 6,-4 10,-2 3,2 6,2 9,2 3,0 10,0 10,0 0,0 -2,-5 4,-6 6,-2 8,-4 8,-4 0,0 0,-2 -2,-4 -2,-2 -4,-6 -4,-6 0,0 -1,-4 1,-6 2,-2 4,-2 2,-6 -2,-4 -2,-6 -2,-9 0,-4 -2,-10 3,-10 4,0 5,0 6,-2 1,-2 2,-2 4,0 2,2 6,-2 6,-2 0,0 4,-3 6,0 2,4 5,4 6,1 2,-2 4,-1 4,2 0,4 4,9 4,11 0,2 2,4 5,3 2,-2 2,-4 2,-6 0,-2 4,-4 7,-2 4,2 6,1 8,-2 2,-4 3,-3 5,-2 2,2 6,2 9,0 3,-2 8,-2 8,-4 1,-2 2,-5 6,-4 4,1 4,0 6,0 2,-1 6,-2 8,1 2,2 9,0 9,0 7,-2 10,-4 9,-8 -1,-4 -2,-5 -1,-10 1,-4 3,-7 3,-7l-3,-5 8,-14 5,2 7,6c0,0 2,-6 8,-6 5,0 8,-4 8,-7 0,-3 0,-14 0,-14 0,-2 1,-5 2,-7 0,-1 1,-2 1,-2 1,-1 4,-1 5,-1l1,-1c0,0 0,0 1,0 0,0 2,-3 2,-3 1,-2 1,-4 2,-5 0,-1 1,-2 1,-3 0,0 -1,-2 -1,-2 0,-1 0,-3 1,-4 1,0 3,0 4,0 2,1 5,2 6,3l3,3 1,1c1,3 -3,7 -2,10l2,2c0,1 -1,6 -1,6l-2,1 0,1 3,2c0,1 1,2 1,3 0,1 1,2 1,3l8,7c0,0 2,2 2,2 1,0 2,0 3,1 0,0 3,2 3,2 0,0 0,1 1,2 0,0 0,1 0,1 0,2 1,5 0,7l1,1 1,1c2,-1 4,-1 6,-1l1,-1 2,0 2,2 3,-1 3,2c1,-1 3,0 4,0 1,0 2,-1 3,-1 1,0 1,0 2,0 0,0 2,1 3,1 0,1 2,2 3,2 3,1 7,5 9,7l0,2z"/><path d="m1724,2120c0,0 -1,0 -1,0 0,0 1,0 1,0z"/><path d="m1707,2127c0,0 1,0 1,0 0,0 -1,0 -1,0z"/><path d="m1706,2127c0,0 1,0 1,1 0,0 -1,0 -1,-1z"/><path d="m1590,1461 -1,1c-2,0 -4,-2 -6,-2 -2,2 0,4 -4,4 -2,0 -2,-2 -3,-2 -1,0 -5,1 -6,1 -2,-1 -6,-3 -6,-3 -2,-1 -5,-2 -7,-2 -1,0 -3,0 -4,0 -1,0 -8,-2 -9,-3 -1,-1 -4,-4 -4,-5 -1,-1 -1,-4 -2,-5 -1,-1 -2,-1 -3,-2 -1,-1 -1,-2 -3,-3 -2,-1 -8,-2 -10,-1 -1,0 -2,1 -3,2 -1,0 -2,0 -3,1 0,0 1,4 1,5 0,1 3,2 3,4l0,1 -1,1c-3,0 -5,-2 -7,-2 -1,0 -12,3 -14,3 -3,0 -5,-1 -7,-1 -1,0 -3,0 -4,0 -2,0 -4,1 -5,2 -1,0 -5,-1 -7,-1 -4,2 -8,-2 -8,-2l-1,0c-2,1 -3,3 -5,3 -1,0 -4,-2 -4,-2 -2,-1 -5,-3 -7,-4 -1,-1 -4,-2 -5,-3 0,-1 -1,-4 -2,-4 -2,0 -4,0 -6,0l-5,0c-3,0 -7,-2 -10,-3 -2,-1 -2,-1 -4,-1 0,0 -4,-7 -6,-4 -2,3 -4,6 -5,8 -2,2 -3,4 -2,6 2,2 2,4 2,4l-1,4 -1,1c-4,-2 -5,2 -10,-2 -1,-1 -3,-1 -4,-3 -1,-2 -7,-6 -9,-6 -3,1 -3,1 -5,-1 -3,0 -2,0 -4,-2 -2,-1 -6,2 -8,-2 -1,2 -5,4 -7,4 -1,1 -2,1 -3,2h-1c-1,0 -1,0 -2,-1l0,0c-1,1 -2,2 -4,2 -2,1 -6,4 -7,1 -2,0 -3,1 -5,1 -1,0 0,3 -3,4 -2,0 -2,0 -2,0 -4,2 -5,2 -8,0 0,0 0,0 0,0 1,0 0,6 -4,4 -1,0 -1,-2 -1,-3 0,0 0,0 0,0 -2,-1 -5,1 -7,0 -2,0 -3,0 -4,-2 0,0 0,0 0,0l-1,0c-2,0 -4,-3 -5,-6 0,-1 1,-2 1,-2 -3,-2 -3,-4 -6,-5 0,0 -1,-1 -1,-1 0,0 -1,0 -1,0l-1,0c0,1 1,2 0,3 -1,1 -5,2 -6,2l-1,1c-5,5 -6,1 -8,2 -1,1 -4,2 -5,1 0,0 0,0 0,0l-1,0c-1,0 -1,1 -2,1 -5,0 -6,-10 -12,-6 -4,3 -6,2 -10,-1 -1,0 -2,-2 -4,-2 -2,4 2,4 -4,8 -1,1 -1,2 -3,3 -4,2 -5,-4 -7,-5 -1,0 -2,0 -3,0 -2,0 -4,-1 -7,-1 0,2 2,4 3,6 3,5 -3,4 -5,5 -3,2 -4,3 -4,6l0,0c5,-3 8,-3 9,-1 1,2 1,5 -1,6 -1,1 -1,1 -1,1 0,1 0,2 -1,4 -3,5 8,6 5,11 -1,1 -4,2 -5,2 -3,2 -5,3 -8,4 0,0 -5,1 -7,-1 -2,-2 -3,-2 -4,-4 -1,-2 -2,-4 -3,-4 -1,0 -1,0 -2,0 0,-2 0,-4 0,-6 0,-2 -1,-4 -1,-6 0,0 -1,-6 -1,-6 1,-4 3,-5 5,-8 1,-1 1,-1 2,-2 0,-1 1,-1 1,-2l2,-4c1,-2 1,-4 2,-6 2,-4 4,-6 5,-10 1,-3 2,-6 2,-9 0,-2 0,-3 0,-5 0,-2 0,-3 1,-5 0,-1 2,-6 2,-7 0,-4 -1,-6 -1,-10 0,-2 0,-4 0,-7 0,-1 0,-3 -1,-4 0,0 0,0 0,0 0,0 -1,-2 -1,-2 0,-2 0,-4 0,-6 0,-3 -1,-7 -3,-10 -1,-1 -2,-2 -2,-3l-6,-6c0,0 -1,-1 -1,-1 -1,-2 -2,-3 -3,-5 -1,-1 -1,-3 -2,-5 -2,-4 -2,-4 -4,-7 -1,-1 -2,-2 -3,-3 0,0 -3,-3 -4,-3 -2,-1 -4,-2 -6,-3 -1,0 -2,-1 -3,-1l-8,-5c-2,-1 -6,-3 -8,-4 0,0 -1,0 -1,-1 -2,-1 -3,-4 -5,-5 -1,0 -2,-1 -4,-1 -2,-1 -3,-2 -5,-3 -2,-1 -3,-1 -5,-2 -2,-1 -7,-5 -8,-6 -2,-2 -4,-5 -6,-7 -2,-3 -4,-5 -6,-8 0,0 -2,-1 -2,-1 -1,-3 -2,-5 -3,-8l-3,-6c-1,-3 -3,-5 -5,-8l-2,-2c0,0 -1,-1 -1,-1 0,0 -1,0 -1,-1l-2,-1c-2,-1 -5,-2 -7,-3 -1,-1 -3,-2 -4,-3l-2,-2c-1,-1 -2,-3 -3,-4 0,0 0,0 0,-1 3,-6 7,-16 8,-17 2,-2 6,-10 10,-14 4,-4 9,-14 9,-14 0,0 4,-8 5,-10 2,-2 2,-6 0,-8 -2,-2 -1,-4 2,-8 2,-3 4,-6 8,-6 3,0 6,0 8,2 2,2 4,2 5,-1 0,-2 3,-6 3,-6l7,0c0,0 4,4 8,4 4,1 12,4 15,6 4,2 8,2 12,6 4,4 10,10 10,10 0,0 4,0 6,1 3,2 7,6 7,6 0,0 6,8 7,10 1,2 5,6 5,6l8,2c0,0 2,5 4,8 3,2 8,8 8,8l5,-4c0,0 4,-2 6,0 3,2 6,4 10,3 3,0 7,0 7,2 0,2 4,4 4,4 0,0 8,-8 10,-10 2,-2 1,-3 3,-6 2,-4 4,-6 4,-6 0,0 -2,-4 0,-8 2,-4 1,-6 4,-7 4,-2 9,-4 9,-4 0,0 1,-4 5,-7 4,-2 9,-5 9,-5 0,0 -4,-4 -2,-6 2,-3 2,-4 2,-6 -1,-2 0,-4 1,-6 0,-2 3,-10 3,-10l2,1 0,1v0l1,0c0,0 1,0 1,0 0,0 1,0 1,0 0,0 0,0 0,0 0,0 1,0 1,0 0,0 0,0 0,0 0,0 0,0 0,0 0,1 1,4 2,4l1,-1 0,-4 2,-1 2,0 2,1 1,3c-1,1 -2,4 -2,5 0,1 0,2 0,3l-1,2 0,1c1,1 1,2 1,2 0,0 1,1 2,2l1,1 2,0c1,0 1,1 2,2 0,1 1,3 2,4l2,0 2,-2c1,1 3,3 4,4l1,0c3,-2 3,-4 3,-7 0,0 1,-2 1,-2 1,-2 1,-4 2,-6 0,0 0,-1 0,-1 1,0 1,0 2,0l2,-2 2,1v0c1,1 2,1 3,2 1,1 2,1 3,2 1,0 2,0 3,-1 2,0 3,2 4,3 0,1 0,3 1,4 0,1 1,2 1,3 0,1 -1,3 -2,4 0,1 1,4 2,5 1,0 2,-1 3,0 1,1 4,4 4,5 0,1 0,3 0,5l6,0c1,1 2,3 2,5l1,1c1,6 -2,7 2,12 1,1 4,1 5,0 1,1 3,4 4,4 0,0 2,1 3,1 0,0 1,2 1,2 0,3 -1,4 -3,7 0,1 -1,1 -1,2 -1,2 -1,6 -2,8 0,0 0,1 -1,1 -1,2 -1,1 -1,4 0,0 0,1 0,1 0,1 1,2 2,3 0,0 1,1 1,1 1,1 1,1 1,1 0,0 1,0 1,1 0,0 0,0 1,0 0,0 0,0 1,0 0,0 1,1 2,2 1,1 3,1 4,2 1,1 2,1 2,3 1,2 2,2 2,4 0,0 0,0 0,1 0,1 0,1 -1,2l-2,3c0,0 0,1 0,1 1,2 3,4 4,6 1,1 1,3 2,4 1,1 3,2 4,3 1,1 1,4 2,5 1,1 2,2 3,3l2,8c0,1 1,1 1,2l1,0 5,-3c1,1 1,2 2,4l1,1c0,0 4,0 4,0 0,0 2,1 2,1 0,0 1,0 1,0 0,0 0,0 0,0 0,0 0,0 0,0 0,0 0,0 0,0 0,0 0,0 0,0l5,5c0,0 1,1 1,1 0,0 3,1 3,2l9,12c0,0 1,1 1,1 0,1 3,4 4,5h0c2,2 4,4 5,6 1,1 1,2 2,2 0,0 0,0 1,1h0v0l11,14 1,0c1,2 2,3 3,5 0,0 0,1 1,1 0,0 1,1 1,1 2,3 5,6 7,10 0,0 3,3 3,4 0,0 1,1 2,1 2,2 4,4 7,5 1,0 2,1 2,1 2,1 2,2 3,3 0,0 0,0 0,1 0,0 0,0 0,0l0,0 1,3 3,1c0,1 1,1 2,1 1,1 1,2 2,2 1,1 2,1 2,2 0,0 2,3 3,3 0,0 0,0 0,0 0,0 1,1 2,1 2,1 3,2 5,3 2,1 3,3 5,4 1,0 2,0 3,1 1,-1 2,-2 2,-2 1,-1 4,-2 5,-3l0,0c0,0 0,-3 0,-3 0,0 -1,-2 -1,-2l1,-2c0,-1 4,-1 4,0 0,0 2,1 2,1l1,1 0,6c0,1 3,6 4,6 1,1 1,1 2,2l0,1 -2,2 -2,0 0,3 1,2 0,2c1,3 4,5 7,7 0,0 1,1 1,1l0,0 1,5c0,1 1,1 2,2 1,2 1,3 2,5 0,0 0,1 1,1 1,1 2,1 3,2 1,0 2,1 2,1 1,1 2,2 3,3 0,0 0,3 0,3 0,2 -1,4 -2,5l1,2 4,3c1,1 0,2 1,3 0,0 0,1 1,2z"/><path d="m1494,2121c0,0 1,0 1,1 0,0 -1,0 -1,-1z"/><path d="m1464,2222c-1,-1 -1,-1 -2,-2 1,1 1,1 2,2z"/><path d="m1459,2218c-1,-1 -1,-1 -2,-2 1,1 1,1 2,2z"/><path d="m1417,2184c0,0 0,0 1,1 0,0 0,0 -1,-1z"/><path d="m1415,2183c0,0 0,0 1,1 0,0 0,0 -1,-1z"/><path d="m1330,2173c0,0 0,0 1,0 0,0 0,0 -1,0z"/><path d="m1314,1150c0,0 -2,7 -3,10 0,2 -2,4 -1,6 1,2 1,3 -2,6 -2,3 2,6 2,6 0,0 -5,2 -9,5 -4,2 -5,7 -5,7 0,0 -6,2 -9,4 -4,2 -3,4 -4,7 -2,4 0,8 0,8 0,0 -2,2 -4,6 -2,4 0,4 -3,6 -2,2 -10,10 -10,10 0,0 -4,-2 -4,-4 0,-2 -4,-2 -7,-2 -3,0 -6,-2 -10,-3 -3,-2 -6,0 -6,0l-5,4c0,0 -5,-5 -8,-8 -3,-2 -4,-8 -4,-8l-8,-2c0,0 -4,-4 -5,-6 -1,-2 -7,-10 -7,-10 0,0 -4,-4 -7,-6 -3,-2 -6,-1 -6,-1 0,0 -6,-6 -10,-10 -4,-4 -8,-4 -12,-6 -4,-2 -11,-6 -15,-6 -4,-1 -8,-4 -8,-4l-7,0c0,0 -2,4 -3,6 0,2 -2,3 -5,1 -2,-2 -6,-2 -8,-2 -3,0 -5,3 -8,6 -2,3 -3,5 -2,8 2,2 1,6 0,8 -2,2 -5,10 -5,10 0,0 -5,10 -9,14 -4,4 -8,12 -10,14 -1,1 -6,11 -8,17 0,0 0,-1 -1,-1 -1,-4 -3,-8 -4,-11 0,-1 0,-1 0,-2 -2,-4 -4,-8 -6,-12 -1,-1 -3,-3 -4,-4 -3,-4 -6,-7 -9,-11 0,0 0,0 0,0 -1,-2 -1,-1 -2,-3 0,0 -1,-1 -1,-2 -1,-1 -2,-3 -4,-4 -1,-2 -4,-4 -5,-6 0,0 -1,-6 -2,-7l-6,-14c0,-1 -1,-2 -2,-3 0,-1 0,-1 -1,-2 0,-1 -1,-2 -1,-3 0,0 0,0 0,0 -1,-1 -1,-1 -2,-2 -1,-1 -2,-3 -3,-4 -1,-2 -2,-3 -3,-5 -1,-2 -2,-3 -3,-5l-2,-3c-2,-2 -7,-8 -10,-8l-3,0c-1,0 -3,0 -4,1l-2,1c0,0 -2,1 -2,1 -1,1 -1,1 -2,2 0,0 -1,0 -1,1 -1,1 -1,1 -2,2 -1,0 -1,1 -2,1l-1,1c0,0 0,0 -1,1 -1,0 -2,1 -3,1 -1,0 -2,-1 -3,-1 -1,-2 -2,-4 -3,-6 -1,-1 -2,-2 -3,-3 0,0 0,0 0,-1 0,0 -2,-1 -2,-1 -1,0 -3,-1 -4,-1 0,0 0,0 0,0 -3,0 -5,0 -8,0 -5,0 -10,1 -14,0 0,0 -1,0 -1,0 -2,-1 -6,-6 -8,-7 -1,-1 -5,-4 -7,-5 -2,-1 -5,-3 -7,-3 -3,-1 -6,0 -9,-2 -1,0 -2,-1 -3,-2 -3,-2 -7,-3 -10,-5 0,0 0,0 -1,0 0,0 -4,0 -4,0 -2,1 -4,3 -7,3 -2,-1 -3,-2 -5,-3 -1,-1 -3,-2 -4,-3 0,0 -3,-1 -3,-1 -1,1 -2,0 -3,0 -2,0 -3,1 -5,1l0,0c0,0 -1,1 -1,1 -2,1 -12,1 -14,1 -1,0 -4,4 -5,5 -1,1 -2,1 -3,2l-2,2c0,0 -1,0 -1,1 -1,1 -1,2 -1,3 -1,1 -4,3 -5,5 0,0 0,1 0,2 1,1 2,4 4,5l2,1c1,0 2,1 3,1 0,0 2,1 2,2 1,1 2,3 1,4 0,1 -1,2 -2,3 -2,1 -4,2 -6,3 -1,0 -2,0 -2,0 -2,1 -4,1 -6,2 -2,1 -5,2 -7,3 0,0 -1,0 -1,0 -1,0 -2,1 -3,1 -2,1 -4,3 -5,5l-1,6c0,0 0,1 0,1 0,0 1,5 1,5l0,1h-14l-20,-4c0,0 0,-6 -1,-9 0,-4 -5,-6 -5,-6l-4,2 -14,-8 2,-6 0,-13 -11,-11c-2,-2 -10,-22 -10,-22l12,-4c0,0 4,2 6,2 2,1 5,0 8,-2 4,-2 10,0 16,2 6,1 29,0 29,0l7,-3 10,-2h17c4,0 22,-1 22,-1l9,-2 18,6c0,0 2,0 4,-2 2,-3 1,-4 3,-9 -3,-2 -10,-8 -15,-11 -5,-3 -9,-3 -9,-3l-1,-2c0,0 3,-7 5,-8 1,0 3,1 3,1l9,-3c0,0 4,-2 6,-5 1,-2 1,-2 2,-6 1,-4 2,-4 1,-7 -1,-2 -5,-1 -5,-3 0,-2 2,-5 0,-5l-3,-1c0,0 -2,-5 -1,-10 0,0 1,1 2,1 3,-2 3,-4 5,-5 0,2 0,3 5,6 3,-3 1,-2 3,-3 -1,-3 -4,-6 -4,-6 0,0 0,-2 0,-4 1,-1 -10,1 -7,0 -1,-2 -1,-5 -1,-6 1,-2 -1,-2 -2,-3 0,3 -3,-5 0,-7 4,0 8,0 13,-2 5,-1 5,-2 11,-2 1,0 9,2 12,3 3,1 3,3 6,5 3,1 3,2 5,3 2,1 6,0 6,0 2,0 4,2 5,4 5,5 4,6 6,8 2,2 4,3 6,4 2,2 5,1 7,1 4,1 2,2 3,3 4,5 9,7 9,7 0,0 5,-3 9,-8 1,-1 16,-4 16,-4 0,0 1,0 5,1 4,2 8,2 10,5 2,2 4,4 4,4l10,-2 5,4c0,0 4,0 7,-4 2,-3 5,-5 5,-5 0,0 4,-6 4,-8 0,-2 2,-6 2,-6h6l3,-3c-1,-2 -3,-7 -3,-8 0,-4 1,-6 5,-6 0,0 0,0 1,0 2,-2 0,-3 5,-3 1,0 2,0 2,-1 2,-2 2,-3 2,-4 0,-2 -1,-3 -1,-5 -2,-7 1,-14 3,-21 0,-1 1,-1 1,-2l1,-6c2,1 4,1 6,2l3,5v0c0,0 1,0 1,0 2,1 7,3 9,4 0,0 3,0 4,0 1,1 3,3 4,4 1,0 3,0 4,1l0,3c0,1 2,3 2,3 1,1 2,0 3,2l0,2c1,1 2,2 3,2 0,0 1,0 1,1 1,1 1,2 2,3v0l1,0 2,-1 3,0c1,-1 2,-5 3,-5l1,0 1,0c0,0 0,0 0,0 0,0 0,0 1,0 0,0 0,0 0,0 1,1 2,3 3,4 0,0 0,1 0,1l1,0c1,0 1,0 2,0 1,0 1,0 2,0 1,0 2,1 2,1 1,4 3,8 5,11l4,6c0,0 2,1 3,1 1,1 2,2 3,2l4,0c1,1 2,3 2,4 2,2 3,2 5,3l2,2c0,0 0,0 1,0 0,0 0,0 0,0 0,0 0,0 0,0 0,0 1,2 1,2 1,1 2,1 3,2l3,-1c1,0 3,1 4,1l2,4c1,1 2,1 3,1 1,1 1,2 1,3 0,0 2,1 3,1 0,0 0,0 0,0 0,0 0,0 1,0 0,0 0,0 1,0 0,0 0,0 0,0 0,0 1,0 1,0 1,0 1,0 2,0 0,0 0,0 1,0 0,0 1,0 1,0 0,0 1,0 1,0 1,1 2,3 3,4l2,1c0,0 0,0 1,0 0,0 0,0 1,0 0,0 0,0 1,0 1,0 1,0 2,0 1,0 1,0 2,0 1,0 1,0 2,0h0c0,0 1,0 1,0 0,0 1,0 1,0l1,1 1,1 1,0 3,-2c1,0 3,0 4,0 2,0 6,-2 8,-1l4,4c0,1 0,3 1,4 0,1 0,1 0,2 0,1 1,1 1,2l1,1 7,-1c2,0 3,0 4,1l3,-1 1,1 1,2 3,1 0,1c1,0 3,0 3,0l1,1 0,1 -1,1 0,1 1,0 2,0c1,0 4,-1 4,-1 1,0 6,2 7,2 0,0 1,0 2,0l1,-3c2,0 4,2 5,4 -1,0 -2,1 -3,2l2,4c1,0 2,0 3,0 0,1 3,4 4,5l2,1 1,0c0,1 2,2 2,2 0,2 -1,3 -1,4 0,1 0,3 0,4 0,0 0,1 -1,2 -2,1 -4,-1 -5,-1 -1,0 -2,0 -3,0l-2,2c-2,2 -1,2 -2,3 -1,2 -1,2 0,3l0,3c0,1 -2,2 -2,2 0,0 -1,3 -1,3 0,0 -2,2 -2,2 0,0 0,4 0,4 0,0 -1,2 -1,3 0,1 0,3 0,4 0,2 -1,4 -1,5 0,2 0,4 -1,6 1,3 2,3 4,4 1,1 1,2 2,2 0,0 1,3 1,3v0l3,1c0,1 1,2 1,3 0,0 2,1 2,1l2,-1c2,1 5,1 7,2l1,1c0,2 -1,4 -1,6 0,0 0,1 0,1 0,2 -1,5 -1,7l0,1 4,2 0,0c1,1 3,2 4,3 1,0 2,1 3,1l2,1c0,0 1,0 1,1 1,1 3,5 3,7z"/><path d="m1302,2124c0,0 0,0 0,0 0,0 0,1 -1,1 0,0 0,-1 0,-1z"/><path d="m1248,693 -4,10c0,0 -5,-2 -7,0 -2,2 -4,9 -4,9l-2,8 -5,2 2,2 -1,2c-3,1 -5,2 -8,3 0,0 0,0 -1,0 0,0 0,0 0,0 0,0 -1,0 -1,1 0,0 0,0 0,0 0,0 0,0 -1,1 0,0 0,0 0,0 0,0 0,0 0,0 0,0 0,0 -1,1 0,0 0,1 -1,1 0,0 0,5 0,7 0,2 0,4 2,7 2,3 0,4 -2,5 -1,1 1,5 1,5 0,0 1,1 1,1l0,1 -2,2c0,1 0,5 0,7 0,0 0,1 0,1 0,1 -1,2 -1,2 -2,2 -3,1 -6,1 -1,0 -3,0 -4,0l-3,2 -2,0c-1,1 0,4 -1,6 -1,0 -3,0 -3,0 0,0 -1,0 -1,-1 -1,-1 -2,-1 -3,-2 0,0 -1,0 -1,0 0,0 0,0 0,0 -2,0 -6,4 -7,5 0,0 -1,2 -1,2 0,0 0,1 0,1 -1,1 -2,2 -2,3l-1,2 -1,1 -3,0c1,1 1,3 2,4 -1,2 -2,6 -4,7l-1,1c1,1 2,3 1,5 0,1 -1,3 -2,3 0,0 -2,0 -2,0 -1,0 -2,-1 -4,-2 -1,0 -1,0 -2,0 -1,0 -2,-1 -2,-1l-5,1 -4,4c-2,1 -5,0 -6,0l0,0 0,0c-1,0 -2,0 -3,-1 0,0 -1,0 -1,0 0,0 -1,0 -1,0 0,0 -1,0 -1,0 0,0 -1,0 -1,0 -2,-2 -3,-5 -4,-7l-2,-2c-2,-1 -4,2 -6,2l-2,-1 -1,-4 -4,0c0,0 -1,-1 -1,-1 0,0 -1,-2 -1,-3 0,-1 0,-2 0,-3 0,-1 -1,-2 -2,-2 -1,0 -3,0 -4,1 -1,0 -1,0 -2,0 0,0 -1,0 -1,0 -2,1 -5,2 -7,2 0,0 0,0 -1,1 -1,0 -2,0 -2,1 0,0 0,1 -1,1 0,0 0,0 0,1 0,0 0,0 0,1 0,0 0,0 -1,1 0,0 -1,1 -1,1 0,0 0,0 0,0 0,0 -1,0 -1,0h0l-1,-1c0,-1 0,-4 0,-4 0,0 0,0 0,0 -5,-2 -5,-1 -10,-1 -2,0 -2,-1 -3,-2 -1,-1 -9,-2 -10,-1l-5,3 -3,-1 -3,1c-1,0 -2,-1 -2,-1l-1,0 -1,1 5,-12c0,0 -2,-4 -6,-8 -4,-4 -2,-8 -2,-8 0,0 6,-14 8,-18 2,-3 2,-4 -2,-6 -3,-2 -6,4 -6,4l-2,3c0,0 -6,2 -8,2 -2,0 -10,-2 -10,-2l-4,-4 -5,4c0,0 -2,8 -4,10 -2,2 -4,3 -8,3 -4,0 -4,0 -6,2 -2,1 -7,2 -7,2 0,0 -3,-5 -4,-7 -2,-2 -5,-3 -7,-3 -1,0 -4,-1 -6,-2 -2,0 -2,-2 -2,-2 0,0 4,-3 7,-4 4,0 4,-4 2,-6 -2,-2 -3,-2 -2,-6 1,-4 3,-10 3,-10 0,0 -6,-2 -8,-5 -2,-4 -2,-7 -6,-8 -4,-2 -7,-4 -7,-4 0,0 -6,-2 -8,-1 -2,0 -9,2 -9,2 0,0 -3,4 -6,6 -3,2 -6,1 -6,4 0,4 0,4 2,6 2,2 0,6 0,6 0,0 -2,2 -4,2 -3,0 -4,-2 -5,-4 0,-2 -2,-4 -4,-2 -2,1 -3,0 0,4 2,3 0,5 -2,6 -2,0 -8,2 -11,4 -2,2 -4,2 -6,2 -3,0 -4,0 -8,2 -4,2 -6,5 -6,5 0,0 -2,0 -6,-2 -4,-2 -8,-4 -8,-4l-6,4c0,0 -4,-2 -6,-4 -3,-2 -4,-3 -6,-3 -2,0 -7,0 -10,0 -2,1 -10,0 -10,0l-2,-7 -8,0 -4,3 -4,2 -8,0h0c0,0 -3,-8 1,-12 4,-4 0,-5 -2,-7 -2,-2 2,-6 0,-9 -2,-3 2,-8 2,-11 0,-4 4,-2 7,-6 3,-3 2,-5 -1,-5 -3,0 -6,0 -5,-2 0,-2 0,-5 -2,-8 -2,-4 0,-10 0,-10 0,0 6,-3 8,-4 2,-2 5,-2 5,-4 0,-2 -1,-5 2,-5 2,0 4,0 3,-4 0,-4 6,-8 10,-12 4,-4 1,-5 1,-5 0,0 2,-4 -4,-9 -5,-5 -2,-5 1,-6 3,-1 2,-3 1,-6 -1,-3 -2,-2 -4,-2 -2,0 -5,0 -5,0 0,0 -2,-2 -5,-6 -4,-4 0,-6 0,-6 0,0 4,-4 6,-6 2,-1 3,-5 3,-5 0,0 -1,-8 -2,-10 0,-2 -2,-8 1,-10 4,-3 3,-6 2,-8 -1,-2 0,-10 0,-12 0,-2 0,-6 3,-6 2,0 5,-4 10,-6 5,-2 8,-4 10,-7 2,-3 4,-2 6,-1 2,1 4,2 8,0 3,-2 5,-5 5,-5l0,0c1,0 2,1 2,1 2,-1 2,-2 3,-3 4,0 3,0 6,-1 1,-2 2,-4 3,-6l3,-1c0,0 1,0 1,0 1,1 2,2 3,3l0,5c1,1 3,3 4,4 1,2 2,4 4,6l1,1c2,0 4,-1 6,-1 0,0 3,1 3,1 1,-1 2,-1 4,0 0,0 1,0 1,0h0c0,0 1,0 1,0 0,0 0,0 0,0 0,0 0,0 1,0h0c0,0 0,0 1,0 0,0 1,0 1,0 2,0 4,3 5,5 0,0 2,1 3,1 2,1 4,3 5,5l1,-1 0,2 1,1 2,0 3,8 2,1c1,0 2,0 3,0 0,0 1,0 1,0 0,0 1,0 1,0 0,0 0,0 1,0 0,0 1,0 1,0 1,0 3,0 4,0 1,0 3,-2 3,-3l0,-2 -2,-3c0,0 0,-2 0,-2 0,0 -1,-1 -1,-2 0,-1 -1,-2 -1,-3l1,-1c1,0 3,0 4,0 1,0 1,0 2,-1 1,0 2,0 3,-1 1,0 5,-2 6,-3 -1,-2 -1,-5 -1,-7 0,0 -2,-2 -2,-2 0,0 -1,-2 -1,-2l1,-3c1,-1 6,-4 6,-5l-1,-3c0,-1 1,-2 1,-2 1,-1 5,-2 6,-2 1,1 3,3 4,2l2,0c1,0 2,-3 2,-4 1,-1 5,-3 6,-3 1,0 3,0 4,0 1,0 1,-1 2,-1 1,0 1,0 2,0l0,0c0,-1 1,-2 2,-2l4,-1c1,-1 1,-2 2,-3 0,0 0,0 0,0 0,0 2,-1 2,-1 0,0 2,0 2,0l3,1c3,0 6,0 8,0 1,-1 4,-2 4,-4 0,-1 0,-2 0,-3l1,-2 1,-1 -1,-2c2,-3 4,-2 7,-3l2,-1c0,0 0,0 1,0l2,-2 1,-1 2,0 1,0 2,-1 2,4c1,1 2,2 3,2l1,0 3,0c2,0 4,-1 6,-1 4,4 5,3 10,5 0,0 1,0 1,0l1,1 0,1 0,2c0,1 0,2 0,2 0,1 1,4 2,5l1,0 2,-3 1,0c2,-1 2,-1 4,-1 2,0 4,0 5,0 1,1 5,5 6,6 0,0 2,5 2,5 0,0 0,3 0,3 1,1 3,2 4,3 1,1 3,3 4,5l1,1c1,0 2,0 4,1l1,1c0,2 1,4 1,6 0,0 2,2 2,3l3,1c3,-2 7,0 9,2 2,0 3,-2 4,-1l2,2c0,3 1,9 2,12 0,1 1,1 1,2 1,1 3,0 4,1 1,0 2,0 3,1 1,2 5,2 6,4 1,1 1,2 2,3 2,1 5,2 7,1l2,1c3,0 5,0 8,0l2,1 0,1c-1,3 -2,6 -3,9l-1,2c-1,1 -2,1 -3,1 -2,2 -6,8 -7,11l1,3c0,0 0,1 0,1 -1,1 -2,1 -3,2 0,0 0,0 -1,1 -1,1 -2,2 -2,3l-2,4c-1,0 -3,1 -4,0 -2,0 -5,-1 -7,-1l-2,-2 -1,-1 0,-1c-1,0 -2,0 -4,1 -1,0 -1,1 -2,1 0,0 0,0 0,0 0,0 -1,1 -1,1 0,1 0,3 0,4 -1,1 -3,1 -5,2 -1,0 -3,2 -4,3l-2,1c0,0 0,0 -1,0 -1,0 -3,0 -5,0l0,2 -3,2c0,2 1,5 0,7 1,0 2,0 3,0 0,0 0,0 0,0 0,0 0,0 0,0 0,0 0,0 0,0 0,0 0,0 0,0 1,0 1,1 1,1 0,0 1,1 1,1 0,0 -4,7 -1,9 3,2 4,2 6,2 2,0 5,-2 6,0 1,2 2,4 4,2 2,-2 4,-4 6,-4l5,-1c0,0 0,-2 2,-4 2,-2 5,-3 8,-3h9l4,-4v-6c0,0 3,-2 5,-3 2,-1 5,-1 6,1 0,2 2,6 5,7 2,1 4,4 2,6 -2,2 -4,4 -4,4 0,0 -4,6 -8,6 -4,0 -6,2 -6,4 0,2 2,8 2,8 0,0 -2,6 -2,8 0,2 -2,6 -2,6v6l6,5c0,0 5,-4 8,-2 3,2 6,2 8,4 2,2 5,5 5,5 0,0 4,-3 7,-3 4,0 6,2 6,2 0,0 8,6 10,8 2,3 6,4 10,4 4,0 6,-2 6,-2l8,-4 1,9c0,0 2,-1 4,1 2,2 9,8 9,8z"/><path d="m1219,729c0,0 0,0 1,0 0,0 0,0 -1,0z"/><path d="m1219,729c0,0 -1,0 -1,1 0,0 1,0 1,-1z"/><path d="m1215,732c0,0 0,0 1,-1 0,0 0,0 -1,1z"/><path d="m1190,778c1,0 2,1 3,2 -1,-1 -2,-1 -3,-2z"/><path d="m1189,778c0,0 1,0 1,0 0,0 -1,0 -1,0z"/><path d="m1149,583c0,0 0,0 1,-1 0,0 0,0 -1,1z"/><path d="m1145,814 0,0c-1,0 -2,0 -3,-1 1,0 3,1 3,1z"/><path d="m1139,813c0,0 1,0 1,0 0,0 -1,0 -1,0z"/><path d="m1138,812c0,0 1,0 1,0 0,0 -1,0 -1,0z"/><path d="m1125,588c0,0 0,0 0,0 0,0 0,0 0,0z"/><path d="m1109,792c1,0 1,0 2,0 -1,0 -1,0 -2,0z"/><path d="m1094,800c0,0 0,0 0,0 0,0 0,0 0,0z"/><path d="m1081,937 -1,6c0,1 -1,1 -1,2 -2,7 -5,14 -3,21 0,2 1,3 1,5 0,1 0,2 -2,4 -1,0 -1,1 -2,1 -5,1 -3,2 -5,3 0,0 0,0 -1,0 -4,0 -5,2 -5,6 0,1 1,6 3,8l-3,3h-6c0,0 -2,4 -2,6 0,2 -4,8 -4,8 0,0 -2,2 -5,5 -2,3 -7,4 -7,4l-5,-4 -10,2c0,0 -2,-2 -4,-4 -2,-2 -6,-4 -10,-5 0,0 -1,-2 -3,-4 0,-1 2,-5 3,-8 0,-3 -1,-6 -1,-9 0,-3 1,-5 -2,-6 0,-3 -3,-7 -5,-7 -1,-1 0,-7 -3,-7 -2,-5 -3,-7 -3,-12 -4,-3 -7,-2 -11,-4 0,-4 1,-7 -2,-11 -3,-3 -11,-8 -12,-11 2,-4 -1,-8 -1,-8 0,0 -5,2 -8,3 -3,1 -6,-3 -6,-3 0,0 -9,-3 -10,-7 -1,-4 -4,6 -4,6 0,0 -4,3 -6,1 -2,-2 -2,-3 -4,-4 -2,-1 -8,4 -8,4l-7,-5c-3,-2 -5,-6 -7,-7 -2,-1 -9,6 -9,4 0,-2 -5,-2 -8,-3 -4,-1 -7,6 -7,9 0,3 5,8 5,8l-9,7 -2,6 -4,3 -5,0 -3,3 -5,2c0,0 -8,-1 -14,-1 -5,4 -13,3 -18,4 -5,1 -7,3 -11,3 -2,-2 -11,-21 -16,-20 -6,-1 -21,0 -21,0 0,0 -12,-5 -17,-7 -5,-2 -13,-4 -16,-4 -3,0 -6,-10 -9,-11 -3,-4 -7,-4 -9,-5 -5,-6 -11,-13 -12,-15 -1,-2 -1,-2 -3,-3 -2,-1 -3,-3 -3,-5 0,-3 0,-2 -1,-5 -1,-2 -1,-3 0,-4l-2,-3c0,0 -4,-6 -6,-8 -2,-2 -4,-5 -4,-5 0,0 4,-2 4,-4 0,-3 -2,-7 -2,-7l-1,-6 4,-8 7,-2c0,0 5,-10 8,-10 3,-1 7,-2 7,-2l4,2 4,-10c0,0 7,-2 10,-4 2,-2 2,-4 3,-6 0,-2 2,-11 8,-10 6,2 10,-1 10,-1 0,0 0,-3 2,-6 2,-4 4,-4 2,-6 -2,-3 -2,-8 -2,-8l3,-3c2,0 5,-2 6,-1 3,1 8,-4 10,-5 1,0 7,-2 8,-2 1,0 2,1 3,1l2,-1 6,-2c0,0 4,-4 3,-8 0,-4 4,-6 4,-6l8,0 4,-2 4,-3 8,0 2,7c0,0 8,1 10,0 2,-1 8,0 10,0 2,0 3,1 6,3 3,2 6,4 6,4l6,-4c0,0 5,2 8,4 4,2 6,2 6,2 0,0 2,-3 6,-5 4,-2 5,-2 8,-2 3,0 4,0 6,-2 2,-2 8,-3 11,-4 2,0 4,-2 2,-6 -2,-3 -2,-2 0,-4 2,-1 4,0 4,2 0,2 2,3 5,4 3,0 4,-2 4,-2 0,0 2,-4 0,-6 -2,-2 -2,-3 -2,-6 0,-4 4,-2 6,-4 3,-2 6,-6 6,-6 0,0 7,-2 9,-2 2,0 8,1 8,1 0,0 3,3 7,4 4,2 4,5 6,8 2,4 8,5 8,5l-3,10c-1,4 0,4 2,6 2,2 2,6 -2,6 -4,0 -7,4 -7,4 0,0 0,1 2,2 2,0 5,1 6,2 1,0 5,1 7,3 2,2 4,7 4,7 0,0 5,-1 7,-2 2,-1 2,-2 6,-2 4,0 6,0 8,-3 2,-2 4,-10 4,-10l5,-4 4,4c0,0 8,2 10,2 2,0 8,-2 8,-2l2,-3c0,0 3,-5 6,-4 3,2 3,2 2,6 -2,3 -8,18 -8,18 0,0 -2,5 2,8 4,4 6,8 6,8l-5,12 0,2 1,3 -1,1 -1,1c-4,2 -4,2 -8,2 -1,0 -1,0 -2,0 0,0 -4,-2 -4,-2 0,0 -1,-1 -1,-1 -2,-2 -2,-2 -5,-2 -1,-2 -3,-3 -4,-5l-1,0 -2,4 -1,0 -1,0c0,1 1,2 2,3 0,0 0,1 1,1 0,0 0,0 0,0 0,0 0,0 0,0 0,0 0,0 0,0 0,0 0,1 1,1 0,0 0,1 0,1l0,2 0,1c0,1 0,2 0,3l1,2c0,1 1,2 2,3l0,1c1,0 3,2 3,2 1,1 2,3 3,4 0,0 2,1 2,1 1,0 3,0 4,0 0,0 1,1 1,1 0,3 0,5 0,8 0,1 0,2 -1,3 1,2 3,4 4,6l-1,1c-2,0 -4,0 -6,1 -1,2 -2,4 -2,6l-2,2 0,5h0l0,5 -1,1 -3,0c0,0 -2,-1 -2,-1 -1,1 -2,1 -3,1l-1,1 -2,0 -1,2c-1,0 -2,1 -2,1 0,0 -4,0 -4,0 0,0 -4,2 -4,2 0,0 -1,1 -1,1 -1,0 -3,1 -3,2 -1,1 0,2 0,2 0,1 -1,3 -2,4l0,1c-1,1 -3,2 -5,3 0,0 -1,0 -1,1 0,0 0,0 -1,0 -1,0 -1,1 -2,1v0l-2,2c-1,0 -4,0 -5,0 -1,1 -1,1 -2,2 -1,1 -2,1 -2,2 0,1 0,2 0,2l2,1 0,-1 2,0 1,-1v0l1,-1c1,0 3,1 4,2 0,1 1,3 2,4 2,0 3,0 5,0l1,1 1,4c0,1 0,1 1,2 0,0 0,0 1,1 2,2 2,2 5,3 1,1 5,2 6,3 1,0 6,0 7,0l1,-1c1,0 3,0 5,0 0,0 1,-1 1,-1l2,0c2,1 6,4 7,6l3,0 1,1 2,2c1,1 5,2 7,2 2,0 5,1 7,1 0,0 2,2 2,2 0,0 0,1 0,1 1,2 1,4 2,5 2,1 3,1 5,1l1,1c0,1 -1,2 -1,3 0,1 0,2 -1,3 0,0 -1,2 -2,2 1,0 1,1 2,1 0,0 3,1 3,1 1,0 3,-1 4,0 2,0 4,-1 6,-2z"/><path d="m1026,804c0,0 0,0 0,0 0,0 0,0 0,0z"/><path d="m1000,881c0,0 1,0 1,-1 0,0 -1,0 -1,1z"/><path d="m997,882c1,0 1,0 2,-1 -1,0 -1,1 -2,1z"/><path d="m738,1090c0,0 7,20 10,22l11,11 0,13 -2,6c0,0 -6,0 -10,-2 -4,-2 -6,0 -8,2 -2,2 -5,0 -13,-1 -8,-2 -2,8 -8,8 -6,0 -6,2 -7,4 -2,2 -4,2 -7,-2 -4,-4 -3,0 -7,2 -4,2 -2,4 -1,8 0,4 -6,5 -6,5l-2,1c-1,0 -2,-1 -3,-2 0,0 -2,0 -3,0 -1,1 -3,4 -5,2 -1,-1 -2,-7 -1,-9 -1,0 -2,0 -2,-1 0,0 -1,0 -1,-1 -1,0 -1,4 -3,4h-1c0,0 -1,0 -1,0 0,0 -4,-3 -4,-5 0,-2 -2,-8 -2,-8 0,0 -6,-3 -9,-3 -3,0 -3,0 -6,-4 -3,-4 -7,1 -9,3 -2,2 -4,2 -6,0 -2,-2 -4,-4 -6,-3 -2,1 -4,0 -4,-2 -1,-3 -3,-2 -8,0 -4,2 -4,-3 -6,-3 -3,0 -3,-6 -4,-8 0,-2 -2,-8 -5,-10 -2,-2 -4,-5 -6,-5 -2,0 -4,0 -8,-2 -3,-2 -4,-1 -7,0 -2,1 -6,-2 -6,-2 0,0 -1,4 -1,6 0,2 -3,7 -3,7l-4,0 -2,-4 -12,-4 -3,4 6,6c0,0 0,5 -2,8 -2,2 -1,11 -2,15 -2,4 -4,13 -4,13l6,6c0,1 -1,3 -1,3l0,2c0,2 -1,3 -2,4l-1,1 0,1c-1,0 -2,0 -2,0 -1,1 -2,2 -3,3 0,0 -1,1 -1,1 0,1 -1,2 -1,2 -2,2 -6,5 -9,7 -1,6 -7,7 -9,10 0,0 0,1 0,1 0,1 -1,1 -1,3 -1,1 -2,1 -4,2 -1,0 -1,0 -2,1l-1,0c0,0 -5,-1 -5,-1 -1,-1 -1,-1 -3,-2 -1,-1 -3,-1 -5,-2 -1,0 -2,-2 -2,-2 0,0 -2,0 -3,0 -1,0 -4,-1 -5,-1 -1,0 -2,-1 -3,-2 -1,0 -3,1 -4,2 0,1 -1,3 -1,4 0,1 -1,2 -2,3 -1,2 -1,5 -1,7 0,2 -3,3 -3,5 0,2 0,3 -1,5 0,1 -1,2 -1,3 0,1 1,4 1,6l0,1 0,1 -4,4 -2,0 -1,-2c-2,-1 -3,0 -5,1 0,0 -1,0 -1,0 -1,0 -3,1 -4,1 -2,0 -9,1 -10,2 -1,2 -1,4 -1,5 0,2 -3,4 -4,5l-1,0c-1,-1 -2,-3 -2,-4l-1,0 -1,1c0,2 0,4 -1,5 -1,2 -3,5 -4,7 1,0 1,1 2,1l0,0c-1,1 -5,0 -6,-1l0,0c-1,-2 -1,-3 0,-5l1,-2c1,-2 2,-4 2,-6 0,0 0,0 0,0 -3,-1 -8,7 -11,2 -1,-1 -1,-2 -1,-3l-1,0c0,0 -1,0 -1,0 0,0 0,0 0,0l0,0c-1,1 -4,2 -5,1l0,0c-6,-2 -4,-6 -8,-9 -2,-2 -4,-3 -4,-6 0,-4 1,-6 3,-10 0,0 0,-1 0,-1 2,-5 2,-4 1,-9l0,-1c-2,-3 -2,-10 -1,-13l0,-1c0,0 0,0 0,-1 -1,-3 -4,-5 -5,-10l-1,-3c-3,-4 -4,-3 -2,-8 2,-9 3,-12 9,-20 1,-1 1,-2 1,-2 1,-3 6,-5 7,-8 1,-3 3,-7 5,-8l1,0 1,0c3,-1 7,2 9,-2 2,-3 3,-4 5,-7 1,-1 1,-1 2,-2 2,-3 0,-5 3,-8l2,-2c4,-3 5,0 10,-9 0,-1 0,-1 1,-2l0,0c2,-2 2,-8 7,-8 2,0 4,0 5,0l2,0 2,0c1,0 1,0 1,0l1,-1 1,-1 0,0 2,-2c0,-1 1,-2 1,-2 1,-2 2,-3 3,-5 1,-5 5,-5 7,-10 1,-3 2,-4 3,-6 1,-3 7,-13 7,-17 0,-1 0,-2 -1,-3l0,0c0,-4 1,-6 3,-11 1,-2 2,-4 3,-6 4,-6 6,-11 5,-19 -2,-7 -7,-6 -10,-11 0,0 0,0 -1,0 -5,-4 -2,-10 0,-15 1,-4 1,-10 0,-14 -2,-5 -3,-7 -2,-13 1,-3 1,-5 1,-8l2,0c0,0 5,-1 8,-1 3,0 5,0 6,-4 0,-4 2,-6 4,-6 2,0 5,0 8,0 2,0 4,-2 5,-4 0,-2 1,-6 4,-6 2,0 4,-3 4,-6 0,-3 2,-11 4,-12 3,-2 2,-4 1,-6 -1,-2 -3,-2 0,-5 3,-4 4,-5 6,-2 2,3 9,-1 9,-4 0,-4 3,-6 6,-8 3,-2 8,-2 4,-6 -4,-4 -4,-7 -1,-10 3,-4 4,-6 8,-4 4,2 6,2 8,0 2,-2 4,-2 6,-2 2,0 4,2 5,4 1,2 2,3 4,5 2,2 5,4 7,2 2,-2 6,-5 8,-2 2,3 2,4 4,4 2,0 5,0 5,-3 0,-2 4,-5 4,-5 0,0 1,4 4,4 3,0 6,2 7,4 1,2 4,2 4,2l10,-4c0,0 2,2 2,4 0,2 -2,2 1,5 2,2 8,7 10,8 2,2 3,4 3,6v6l11,4 0,5c0,0 6,-1 8,-1 2,0 3,1 4,-2 1,-3 2,-4 2,-4 0,0 1,2 3,4 -1,1 -4,4 -4,4l0,8 -5,5 -5,22 -7,8c1,2 0,10 0,10 1,1 7,10 10,14 3,-1 4,8 5,12l0,7 -7,19c-1,3 -13,12 -10,10 3,-2 -4,4 -2,8 3,6 1,8 4,11 3,2 3,1 6,1 3,1 8,-1 11,-3l6,9 2,0 2,5 7,9 -1,5 1,8 1,5 5,2 8,-2 7,-1z"/><path d="m838,511 -4,2c0,0 0,0 0,0z"/><path d="m833,513c0,0 0,0 0,0 0,0 0,0 0,0z"/><path d="m817,1168 0,3c-1,1 -2,3 -3,4 -1,1 -4,2 -5,3l0,1c-1,0 -2,0 -2,0 0,0 -1,0 -1,1l-4,2c-2,2 -1,6 -2,8 0,1 -1,3 -1,4 0,0 0,0 0,0 0,0 0,3 0,3 0,1 1,2 1,4 0,0 0,2 0,2 0,0 0,3 0,3l-1,2c0,1 0,1 -1,2 -1,1 -1,2 -2,3 0,0 0,0 0,0 -2,2 -3,4 -5,6 0,0 -2,1 -2,1l-2,1c0,0 -2,0 -2,0h0c-2,-2 -7,-6 -9,-6 -1,0 -3,0 -4,0 -1,0 -1,-1 -2,-1 -1,0 -2,0 -2,0 -1,0 -2,0 -2,0 -3,2 -6,3 -9,4 -2,1 -4,2 -5,3 -1,0 -2,1 -2,1 0,0 -1,0 -1,0 0,0 -5,3 -6,3 -2,1 -3,3 -5,4 -2,1 -4,1 -5,2 -1,0 -2,1 -3,1l-2,4c-1,2 -2,4 -4,5 0,0 0,0 -1,1 -1,1 -4,1 -5,2 -2,1 -5,1 -6,3 -1,0 -3,0 -4,1l-3,5 0,2c2,1 3,3 4,5l0,1c0,0 -1,2 -1,2l-1,1c-1,0 -2,1 -2,1 0,0 0,0 0,0 0,0 -2,0 -2,0 -1,0 -1,-1 -2,-1 -1,-1 -3,-1 -4,-2 -1,0 -2,-1 -2,-1 0,0 -1,-1 -1,-1 -1,-1 -3,-1 -4,-2 -1,0 -2,0 -3,-1 0,0 -2,-2 -2,-2l0,-1 0,-2c1,-2 3,-5 4,-7 1,-2 0,-4 0,-6 0,-2 0,-4 1,-6 0,0 0,0 0,0 0,-1 -1,-2 -1,-3 0,-1 0,-1 0,-2 0,-2 -4,-3 -5,-3 0,0 -1,0 -1,0 -1,0 -2,0 -2,0 -1,0 -3,0 -4,0 -2,0 -3,1 -5,1 -1,0 -3,-1 -4,-1l-2,0c0,0 -1,0 -1,0 -1,0 -1,0 -1,0 -3,1 -4,1 -7,0l0,0c-2,-1 -3,-1 -5,-2 -1,0 -2,-1 -2,-1 -1,-1 -3,-1 -4,-2 -2,-1 -4,-3 -6,-4 0,0 -1,0 -2,-1 -1,0 -1,-1 -2,-2 -1,-1 -5,-5 -7,-6 -1,0 -1,0 -2,-1l-3,-1c-3,-1 -6,-1 -9,-2 -1,0 -4,-2 -5,-3 -2,-1 -4,-4 -5,-6 0,-1 -1,-2 -1,-3 -1,-1 -4,-3 -5,-5 -2,-2 -3,-3 -5,-5 0,0 -4,-3 -4,-3 0,0 -2,-5 -2,-5 0,0 0,-1 0,-1 0,-1 -1,-3 -1,-4 0,0 -1,-1 -1,-1 0,0 0,-1 -1,-2l-1,-1c0,0 0,0 0,0 -1,0 -5,-2 -6,-2 -1,0 -1,1 -2,1 0,0 -3,0 -3,0 0,0 0,0 -1,0l-2,-1c0,0 -5,-1 -6,-1 -2,1 -8,4 -9,6 0,0 0,0 0,1l-6,-6c0,0 3,-9 4,-13 2,-4 1,-12 2,-15 2,-2 2,-8 2,-8l-6,-6 3,-4 12,4 2,4 4,0c0,0 3,-5 3,-7 0,-2 1,-6 1,-6 0,0 3,2 6,2 2,-1 4,-2 7,0 3,2 5,2 8,2 2,0 4,3 6,5 2,2 4,7 5,10 0,2 0,8 4,8 3,0 2,6 6,3 4,-2 6,-4 8,0 1,3 2,4 4,2 2,-1 4,1 6,3 2,2 4,2 6,0 2,-2 6,-6 9,-3 3,4 3,4 6,4 3,0 9,3 9,3 0,0 1,6 2,8 0,2 4,5 4,5 0,0 1,0 1,0h1c2,0 3,-3 3,-4 0,0 1,0 1,1 0,1 1,1 2,1 -1,1 0,7 1,9 2,2 4,0 5,-2 1,0 2,0 3,0 1,1 2,1 3,2l2,-1c0,0 6,-1 6,-5 0,-4 -3,-6 1,-8 4,-2 4,-5 7,-2 4,4 6,4 7,2 2,-2 0,-4 7,-4 6,0 0,-10 8,-8 8,2 10,4 13,1 2,-2 4,-4 8,-2 4,2 10,2 10,2l14,8 4,-2c0,0 4,3 5,6 0,4 1,9 1,9l20,4h14z"/><path d="m778,322c0,1 0,2 0,3 -2,1 -1,1 -2,2 -1,1 -5,4 -5,5 -1,1 -1,4 -2,5 -1,1 -2,1 -2,1 -1,1 -2,2 -2,2l0,1 -2,1c-3,2 -3,5 -5,8 -1,1 -3,1 -4,1 0,0 0,3 0,3 0,0 -1,2 -1,2 0,1 0,2 -1,3 -1,1 -1,2 -2,3v2c1,0 2,0 3,-1 2,-1 2,-1 4,-1 0,0 2,-4 4,-6 1,-1 3,-1 5,-1l0,2c-2,2 -3,3 -4,6 -1,2 -2,4 -2,5 0,0 -2,4 -3,4 0,0 -1,1 -1,1 0,3 -1,6 -1,9 0,0 -1,3 -1,3 0,0 0,1 0,1l0,2c0,1 1,1 2,2 0,1 0,3 0,4l-1,0 -2,1 -3,0c-1,0 -1,0 -2,0 0,0 0,0 -1,0 -3,1 -2,1 -5,3 -1,1 -2,1 -3,2 -1,0 -1,1 -2,2 0,0 0,0 -1,1 0,0 -1,0 -1,1 -1,1 -2,1 -3,2l0,1 1,1 0,1 1,0 0,1 2,0c3,1 4,-1 7,-2 1,0 3,1 4,1 1,0 2,0 3,1 1,1 4,4 5,5 0,3 0,3 0,6l0,1 -1,2c0,1 0,2 0,3l-1,2 0,1 2,2c1,1 3,0 5,0 1,1 2,3 3,4l0,2 -1,1 0,1c0,0 -8,-1 -11,-1 -3,0 -5,2 -8,2 -3,1 -6,0 -8,-4 -2,-3 -4,-1 -6,0 -2,2 -2,2 0,4 3,2 0,4 0,4l-4,6c0,0 0,4 2,7 2,3 -2,7 -6,8 -4,0 -8,4 -12,4 -4,0 -13,4 -14,6 -2,2 -5,6 -7,6 -2,1 -8,4 -12,4 -4,0 -4,2 -8,5 -3,3 -9,10 -10,13 -1,3 -6,4 -8,2 -2,-2 -4,-2 -6,-4 -2,-2 -2,-4 2,-6 3,-2 2,-4 0,-8 -2,-3 -4,-2 -6,0 -2,2 -3,1 -6,0 -3,-2 -8,0 -8,0 0,0 -2,-1 -4,-4 -2,-2 -6,-6 -6,-6l-4,5c-6,0 -4,-5 -4,-8 1,-2 -1,-4 -6,-5 -5,-2 -12,-6 -16,-8 -4,-2 -5,0 -8,2 -4,2 -5,-2 -10,-3 -5,-1 -4,-2 -6,-4 -2,-2 -4,-5 -6,-8 -3,-2 -2,-6 -3,-8 -1,-2 0,-4 -3,-5 -2,0 -4,-4 -8,-4 -3,0 -2,-2 -4,-4 -2,-2 -8,0 -8,2 -1,2 -2,2 -6,2 -4,-1 -2,-4 -2,-8 0,-4 -6,-4 -9,-4 -4,0 -4,0 -5,-4 -1,-3 -5,-4 -5,-4l1,-2c-1,-2 -1,-3 -1,-5 0,-1 1,-1 1,-3l-1,-1c-2,0 -4,-1 -6,-2 -1,-2 -2,-3 -3,-5 0,0 -1,-1 -1,-1l-8,-1c-1,-1 -2,-2 -3,-3 -1,-1 -2,-1 -3,-2l-1,-1c0,-1 0,-9 0,-10 0,-1 2,-4 2,-4 0,0 0,-6 0,-6l0,0c0,-1 2,-3 2,-4 0,0 -1,-3 -1,-3 0,0 1,-4 2,-5l0,0c0,-2 -2,-4 -2,-6l0,-2 0,-1c3,-2 5,-4 7,-7 0,-1 -1,-2 -1,-3 0,-1 -1,-1 -1,-2 0,-1 0,-3 0,-4 0,-1 -1,-3 -1,-4 0,-1 0,-3 1,-4 2,0 5,0 8,0 1,0 3,-1 4,-2l3,-3c0,-1 0,-7 -1,-8 0,0 -2,-2 -2,-2 0,0 -1,0 -1,0 -2,-1 -8,-2 -9,-4l-1,-2c-1,-2 0,-2 0,-4l0,-3c0,-1 0,-1 0,-2l-1,-3 0,-1 -3,-2 0,-4 1,-1c2,-4 2,-3 2,-7 0,-1 1,-1 1,-2 0,-1 0,-2 1,-3 0,-1 1,-2 1,-3 0,-1 0,-3 1,-4l0,0c0,0 0,-1 1,-1 0,0 0,-1 0,-1l0,-1c-1,-2 -3,-1 -5,-2 -1,0 -3,-2 -3,-2 -1,-2 0,-3 -1,-6 -2,-2 -4,-1 -6,-4l0,0c-1,-1 -2,-2 -2,-3 1,-2 1,-4 2,-6 0,0 0,-2 0,-2 -1,-2 -1,-3 -3,-4l-1,0c-1,1 -2,2 -3,3l-2,0c-1,-1 -1,-1 -2,-2 0,0 -1,-1 -1,-2 -1,-1 -5,-1 -6,-1 -1,-1 -3,-2 -3,-3l0,-1 0,-1c0,-2 1,-5 2,-7 0,0 1,-2 2,-3 0,-1 -2,-2 -2,-2 -1,-1 -1,-3 -2,-4 0,0 0,0 0,-1 -1,-3 -2,-5 -3,-8 0,-1 -1,-1 -1,-2 0,-1 -1,-2 -1,-2 -1,-2 -3,-4 -4,-6l1,-1 0,-1c1,-1 2,-2 3,-2 0,0 2,-3 2,-3 0,0 0,-4 0,-4 0,0 -3,-6 -3,-7 -1,-1 -2,-3 -3,-4 -1,-1 -1,-3 -2,-4l-3,0 -1,-1 -1,-3 0,0c0,0 0,-3 0,-3 0,-1 1,-2 1,-2 0,0 1,-1 1,-1 1,-1 2,-4 3,-5 1,0 4,0 5,0 1,0 3,1 4,2l2,0h1l2,-1c2,-1 2,-2 2,-4 0,-1 0,-2 0,-2 1,-2 3,-4 4,-6 0,0 1,-2 1,-2 0,0 0,0 0,0 0,-2 0,-4 2,-6 0,0 1,-1 1,-1 0,0 3,-1 3,-1 0,-2 0,-2 -1,-5 0,-1 0,-1 0,-1 -1,-1 -2,-2 -2,-3l0,-1 0,-1 2,-1 1,-2c-1,-1 -1,-3 0,-5 1,-1 1,-1 2,-2 0,0 0,0 0,0 0,0 1,-1 1,-1l0,-2c1,-1 3,-1 5,-1 0,0 1,0 1,0 0,0 1,0 1,0 0,0 0,0 1,0 2,-1 4,-5 6,-6 1,0 3,1 4,1 0,0 1,-1 2,-1 1,0 4,1 5,1 1,0 2,1 3,2l0,1 4,7c1,1 1,1 1,2 1,1 1,4 1,5 1,2 3,3 4,5 1,1 2,3 3,5l2,2 4,1c1,0 3,-1 4,-2 0,0 1,-1 1,-1 0,-2 0,-4 0,-6 0,-1 2,-3 2,-4 1,-1 2,0 3,0l3,0c1,0 2,1 3,1 0,0 1,0 1,0 3,0 3,0 5,-2l2,-2 1,3 2,-4 0,0c0,0 3,-1 3,-2 1,0 6,0 7,0 1,0 2,1 3,2 1,1 4,1 6,2 1,0 1,0 1,0 2,0 5,0 7,2l0,1c1,2 1,4 2,6 0,0 1,1 2,2l2,0 0,1c0,0 1,1 1,1 1,1 5,4 5,5 0,1 -1,2 0,3 0,1 0,3 1,3 1,1 2,2 3,3 1,1 2,3 2,4l-1,2 0,1 1,2c1,1 2,1 3,2l1,0c2,2 4,5 7,6l0,2 1,1 0,3 1,1c1,0 4,0 5,0l2,1 2,7 1,1c2,0 3,1 4,1 1,0 3,0 3,-1 3,1 3,2 4,4 0,0 0,1 1,1l1,3 0,2 1,1 4,-1 1,1 3,2c1,1 2,4 2,6l1,1c1,0 4,1 5,1 1,0 2,2 3,2 1,3 2,6 5,8l-1,2 0,1c3,1 6,3 7,5 1,1 2,3 3,3 0,0 2,1 3,1 0,0 3,0 3,0l1,1 0,1 -1,2c-2,1 -4,1 -6,1l-1,1 0,2c0,2 2,5 3,6l2,2c0,0 1,1 1,1 1,1 3,1 4,2 0,0 1,1 2,1 2,1 4,2 6,3 1,1 2,2 3,2 2,1 5,2 7,3 1,1 3,4 3,5 -1,2 -1,4 -2,6 1,3 5,4 8,4 0,1 0,4 0,5 0,1 2,3 2,6 0,1 -1,1 0,3 0,0 0,0 0,1 1,1 2,2 2,4l0,1 0,1c0,0 -3,5 -3,5 0,1 0,6 -1,7 1,1 2,3 3,4 0,1 2,6 2,7 0,0 0,2 0,2l2,5 1,1 3,-2c4,0 8,0 12,1l1,0c1,-1 2,-2 3,-3 0,0 1,-1 2,-1 1,-1 2,-2 2,-4l1,0c0,-1 2,-2 3,-3 0,0 2,-1 3,-1l0,0 1,-1 1,-1c1,-1 1,-2 1,-3l2,-1 1,-1c1,-3 -1,-5 -1,-8 0,-1 0,-3 0,-4 0,0 0,-2 0,-2 0,-1 0,-2 1,-3l-1,-4 1,-4c1,-2 4,-4 7,-3l0,1 1,1c1,2 1,7 1,9 0,0 0,1 0,1 0,2 0,4 0,6 0,0 0,2 0,2 0,1 -1,2 -1,4 0,1 0,1 0,2l0,3c0,0 0,1 0,1 0,1 0,1 1,2 1,1 3,3 5,3l1,-2c3,-1 6,-2 10,-3 0,0 1,0 1,0l3,0c0,1 0,4 1,5 0,0 3,1 3,1 0,0 2,2 2,2 2,-1 3,0 5,1l1,1c1,2 0,4 -1,6 0,1 0,1 0,2 0,0 -1,1 -1,2 0,0 1,2 1,3l0,1 2,3 -1,3z"/><path d="m738,403c0,0 0,0 1,-1 0,0 0,0 -1,1 0,0 -1,0 -1,1 0,0 1,0 1,-1z"/><path d="m302,758 -1,0c-4,-1 -11,-6 -14,-6 -2,0 -3,-1 -5,-1 -7,0 -11,2 -18,-2 -1,-1 -2,-2 -4,-2 -2,0 -3,1 -4,2h0c0,0 -5,-5 -5,-7 0,-2 -1,-4 -4,-4 -4,0 -4,-2 -4,-5 0,-2 0,-3 4,-5 4,-2 3,-8 8,-6 5,2 6,0 9,0 4,0 8,0 12,0 4,0 8,0 8,0 0,0 3,0 4,-2 1,-2 2,-6 5,-4 4,2 4,0 6,-2 2,-2 2,-4 4,-5 3,-1 6,-1 4,-4 -2,-3 -6,-2 -1,-6 4,-4 3,-8 10,-10 7,-2 8,-2 11,1 3,4 4,4 8,5 3,2 10,6 10,6 0,0 0,0 6,-1 7,-2 7,-4 7,-4 0,0 0,-4 1,-6 0,-2 0,-3 2,-3 2,0 4,0 4,-3 1,-4 2,-10 2,-12 0,-2 2,-2 -2,-4 -4,-2 -4,-2 -2,-4 2,-2 2,-2 2,-6 -1,-4 -5,-12 -5,-12l4,-4c0,0 5,0 10,0 6,0 6,0 8,-1 2,-2 4,-2 10,-2 6,0 10,0 12,-2 2,-2 2,-4 8,-3 6,1 6,-2 7,-4 2,-2 4,-6 6,-8 2,-2 3,-4 2,-6 0,-2 -4,-4 1,-6 5,-1 6,-3 6,-5 0,-2 2,-2 4,-4 2,-2 2,-6 2,-8 0,-2 2,-4 -1,-5 -3,-1 -5,-4 -1,-6 4,-1 6,-4 5,-7 0,-4 0,-4 -2,-6 -2,-1 -3,-2 -3,-5 0,-2 0,-8 -4,-6 -3,2 -6,-2 -6,-2 0,0 -4,-2 -4,-5 0,-2 -4,-5 -4,-5 0,0 -1,-4 -4,-2 -2,1 -4,1 -6,2 0,0 -1,-1 -1,-1l0,-1c0,-1 0,-3 -2,-3 0,-6 5,-6 9,-8 4,-2 4,-11 3,-14l9,-6c0,0 1,-6 5,-6 4,0 9,0 13,0 4,0 8,0 8,-2 0,-2 2,-4 -3,-6 -4,-2 -5,-8 0,-8 5,-1 6,-1 7,-5 0,-4 3,-6 6,-8 4,-2 7,-4 10,-4 2,0 4,0 4,-4 0,-4 -4,-5 3,-7 6,-2 8,-6 8,-10 0,-4 2,-14 2,-15 0,0 0,0 0,0 0,-2 0,-5 0,-7 0,-2 1,-3 -1,-4l-1,-1 0,-2 1,-1 1,-1 1,0c1,1 2,2 4,2l1,0c2,-1 2,0 4,-1 1,0 2,-1 3,-1 0,0 4,1 5,4 1,3 2,4 5,4 4,0 8,0 9,4 0,4 -1,6 2,8 4,1 4,1 6,-2 1,-2 6,-4 8,-2 2,2 2,4 4,4 3,0 5,4 8,4 2,0 2,3 3,5 1,2 0,5 3,8 3,2 5,6 6,8 2,2 1,2 6,4 5,1 6,4 10,3 4,-2 5,-3 8,-2 4,2 11,6 16,8 5,2 7,2 6,5 -1,2 -2,8 4,8 0,0 0,4 1,7 2,2 8,7 12,10 4,4 0,6 -1,8 -2,2 -4,6 -3,8 0,2 0,4 -2,8 -2,4 -1,2 2,4 3,1 4,2 3,6 -2,3 -4,13 -4,13 -2,1 -7,4 -7,5 -1,2 -2,5 -4,6 -4,2 -10,0 -13,2 0,0 -3,3 -3,3l0,2 -4,8c0,0 -2,8 -4,10 -1,2 0,4 0,8 0,4 -2,4 -4,6 -2,2 -1,5 -4,8 -2,4 -2,7 -2,10 0,2 3,5 -2,9 -4,4 0,4 3,4 3,0 4,2 4,4 1,2 1,4 -2,6 -4,3 -3,8 -4,12 -2,4 0,4 3,5 2,1 2,2 4,6 2,3 2,4 4,5 2,1 4,4 4,8 0,5 -6,6 -6,6 0,3 -4,6 -4,6l-4,4 0,6 0,2c-3,0 -6,2 -9,2 -9,2 -10,9 -21,7 -9,-2 -7,-1 -13,3 -2,2 -9,6 -9,9l0,0c-1,5 -8,6 -12,8 -9,7 -11,3 -15,5 -8,4 -11,4 -20,3h0c0,0 -1,0 -2,0 0,0 0,0 0,0 -4,1 -15,13 -20,15 -2,1 -5,1 -6,2 1,1 2,0 3,2l0,1c0,1 0,2 -1,3l0,1c-2,2 -10,6 -13,5 -4,-1 -4,-2 -9,-1 -4,1 -7,2 -12,1 -1,0 -1,0 -1,0 -1,0 -3,-1 -4,-1 -5,0 -7,0 -11,1 -12,2 -15,-2 -24,-1 -3,0 -5,3 -12,3 0,0 -9,-4 -11,-5 -1,-1 -3,-2 -4,-3 -4,-2 -5,-2 -6,-3 -1,-1 -2,-2 -4,-5 -1,-1 -5,-2 -6,-2 -2,1 -5,3 -7,5 -5,5 -6,10 -15,4 -1,2 -2,4 -4,3l-1,0 -1,0c-1,0 -1,-1 -2,-1 0,0 -2,-2 -2,-2z"/><path d="m493,437 0,-1c0,1 -2,11 -2,15 0,4 -2,8 -8,10 -6,2 -3,3 -3,7 0,4 -2,4 -4,4 -2,0 -6,2 -10,4 -4,2 -6,4 -6,8 0,4 -2,4 -7,5 -5,1 -4,7 0,8 4,2 4,4 3,6 0,2 -4,2 -8,2 -4,0 -9,0 -13,0 -4,0 -5,6 -5,6l-9,6c2,3 1,12 -3,14 -4,2 -9,2 -9,8 1,0 2,2 2,3l0,1c0,0 1,1 1,1 2,0 4,-1 6,-2 4,-2 4,2 4,2 0,0 4,2 4,5 0,2 4,5 4,5 0,0 2,4 6,2 3,-2 4,4 4,6 0,2 1,4 3,5 2,1 2,2 2,6 0,4 -1,6 -5,7 -4,1 -2,4 1,6 3,1 1,3 1,5 0,2 0,6 -2,8 -2,2 -3,2 -4,4 0,2 -1,4 -6,5 -5,1 -2,3 -1,6 0,2 0,4 -2,6 -2,2 -4,6 -6,8 -2,2 -2,5 -7,4 -6,-1 -6,0 -8,3 -2,2 -6,2 -12,2 -6,0 -8,0 -10,2 -2,2 -2,2 -8,1 -6,0 -10,0 -10,0l-4,4c0,0 -10,0 -12,-2 -2,-2 -4,-1 -7,2 -4,2 -4,2 -7,1 -2,0 -8,0 -8,0 0,0 -8,-6 -10,-8 -2,-2 -6,-6 -6,-6v-10c0,0 0,-6 -4,-8 -3,-2 0,-8 0,-8 0,0 -4,0 -7,0 -2,0 -2,-4 -2,-4l-2,-6c0,0 -8,0 -10,0 -2,0 -4,1 -7,2 -2,1 -7,-1 -7,-1 0,0 -2,-3 -2,-5 0,-2 0,-3 2,-6 2,-3 1,-6 -2,-8 -2,-2 -2,-5 -2,-5 0,0 0,-8 0,-10 0,-2 -1,-4 -4,-6 -2,-2 -2,-6 -2,-6 0,0 -4,-2 -8,-6 -4,-3 -4,-4 -5,-6 -1,-2 -2,-8 -2,-12 0,-4 -6,-7 -6,-7 -2,1 -2,2 -4,2 -2,1 -5,3 -7,2 -2,-1 -4,-2 -4,-2l-2,0c0,0 -3,-2 -3,-3 0,-1 -4,-5 -4,-5l0,0c2,-2 3,-4 5,-6 2,-2 2,-2 3,-4l-1,-1 -1,0c0,0 -1,0 -1,0l-13,3c-4,1 -6,4 -9,4 0,0 -1,0 -2,0 0,0 0,0 0,0 -1,0 -2,0 -2,0 -2,0 -3,-2 -4,-3 0,-1 0,-3 0,-4 0,-1 1,-3 2,-4 0,-1 1,-3 1,-4l0,-2c0,-2 0,-5 2,-7 1,-2 3,-2 4,-4l1,-2c0,-2 -2,-7 -1,-8l1,-1c1,0 2,-1 3,-1 2,0 5,0 7,0 4,-2 6,-5 10,-8 0,0 1,-1 1,-1 1,-2 1,-5 2,-7 0,-1 1,-2 2,-3 1,-1 1,-1 2,-2 0,0 2,-2 2,-2 0,0 0,-1 0,-1l1,-2c0,-1 0,-2 0,-2 0,-3 1,-5 4,-6 0,0 0,-1 0,-2 0,-1 0,-2 0,-4 0,0 0,-3 0,-3 0,0 0,-1 0,-2 0,0 1,-3 1,-3 1,-3 2,-5 3,-8 0,0 1,-3 1,-3 0,0 0,-1 0,-1 0,0 0,0 0,-1 0,0 0,-2 0,-2 0,-2 1,-4 1,-6 4,-1 5,0 9,2 7,3 8,3 16,3l2,-2 3,0c1,-1 6,-6 8,-7 0,0 0,-1 0,-1 1,-1 1,-3 3,-4l2,0c0,0 2,-2 2,-2 1,-1 3,-1 4,-1 1,0 2,-1 3,-2 2,-1 7,-3 9,-4 1,0 3,0 5,-1 0,0 0,0 0,0 0,0 1,-1 2,-1 2,-3 5,-6 8,-8 1,-1 1,-2 2,-2 2,-1 4,-2 6,-3 1,-1 2,-2 3,-3l2,0c3,-1 2,-2 4,-4 1,-1 3,-2 4,-3 1,-1 2,-3 3,-5 1,-2 3,-3 5,-5l2,0 0,0c0,-4 -1,-6 -3,-9 2,0 4,0 6,0 1,0 1,1 2,1 1,0 2,-1 3,-1 1,0 2,0 3,0 1,1 2,3 1,5 0,0 0,0 0,0 0,0 0,1 -1,1 0,0 0,1 0,1 0,0 0,1 0,1 0,0 0,2 0,2 0,2 2,5 2,7 -1,1 -3,4 -4,6 0,1 0,2 0,3 0,1 0,1 0,2 0,0 0,1 0,1 0,0 0,1 0,1 0,0 0,1 0,2 0,0 0,0 0,1l0,1c0,0 0,0 0,1 0,0 0,0 0,0 0,1 -1,2 -1,2 -2,0 -2,2 -3,0 -1,-2 -6,-1 -8,1 -2,2 -1,2 2,5 3,3 3,4 4,8 1,3 4,4 4,7 0,3 0,4 4,3 3,0 5,3 5,3l1,1 0,0 2,0c1,0 1,1 2,2l1,1 0,2c0,2 -1,3 -2,5 -1,1 -1,2 -1,3 1,1 5,8 5,8 0,1 0,3 1,4 0,0 1,0 1,0 2,2 3,3 5,6 0,0 1,0 1,0 2,-1 5,-1 7,-2 0,0 0,0 1,0 2,0 1,0 3,0 0,0 0,0 1,0 1,-1 2,-2 4,-3 1,-1 2,-1 3,-2 2,-1 5,-4 7,-4 1,0 3,0 4,0 1,0 1,0 2,0 3,-1 5,-1 8,0 0,0 1,0 1,-1 2,-1 4,-2 7,-3 2,-1 7,-1 9,-1 1,0 3,0 4,-1 3,0 6,0 8,1l3,3 1,0c1,0 2,-1 3,-1 0,0 1,1 1,2l0,2c0,0 0,1 0,1l-1,2c0,1 -1,2 -2,3 0,1 0,2 -1,3 0,0 0,0 0,0l2,2c1,0 3,0 4,0l1,-1 1,-2c1,-1 4,-1 5,-2 0,0 1,0 2,0 2,-1 1,-1 3,-1l1,0c1,1 2,2 3,3 0,0 0,1 1,1 1,1 2,2 2,2 1,2 0,4 1,5l2,0c1,1 2,2 3,2 0,0 1,0 2,0 1,-1 3,-2 4,-2 2,0 6,1 9,1z"/><path d="m476,105c0,0 1,0 1,0 0,0 0,0 -1,0z"/><path d="m470,106c1,-1 3,-1 5,-1 -2,0 -4,0 -5,1z"/><path d="m469,110c0,0 0,0 0,0 0,0 0,0 0,0z"/><path d="m443,1266c0,0 0,0 0,0 0,0 0,0 0,0z"/><path d="m443,1265c0,0 0,0 0,0 0,0 0,0 0,0z"/><path d="m443,1265c0,0 0,0 0,0 0,0 0,0 0,0z"/><path d="m442,1264c0,0 0,0 0,0 0,0 0,0 0,0z"/><path d="m442,1264c0,0 0,0 -1,0 0,0 0,0 1,0z"/><path d="m397,1294c0,0 0,0 0,0 0,0 0,0 0,0z"/><path d="m373,832c0,0 0,0 0,0 0,0 0,0 0,0z"/><path d="m367,666c4,2 2,2 2,4 0,2 0,8 -2,12 -1,4 -2,3 -4,3 -2,0 -2,1 -2,3 0,2 -1,6 -1,6 0,0 0,2 -7,4 -7,2 -6,1 -6,1 0,0 -6,-4 -10,-6 -3,-2 -4,-2 -8,-5 -3,-4 -4,-4 -11,-1 -7,2 -6,6 -10,10 -4,4 -1,3 1,6 2,3 -2,3 -4,4 -3,1 -3,3 -4,5 -2,2 -2,3 -6,2 -4,-2 -4,2 -5,4 -1,2 -4,2 -4,2 0,0 -4,0 -8,0 -4,0 -8,0 -12,0 -4,0 -4,2 -9,0 -5,-2 -4,4 -8,6 -4,2 -5,2 -4,5 0,2 0,5 4,5 4,0 4,2 4,4 0,2 5,7 5,7 -2,2 -4,5 -7,6 -2,1 -5,3 -6,4l0,0c-2,2 -5,3 -7,4 -6,4 -6,4 -13,3 -1,0 -10,6 -15,0 0,0 -1,-1 -1,-2 -2,0 -6,1 -9,1 -5,0 -6,-1 -8,-1 -2,0 -12,-3 -13,-3 0,-1 1,-3 1,-4l1,-2c1,-1 3,-2 5,-3l1,0c2,-1 4,-3 5,-5l1,0c1,-1 1,-3 2,-4 1,-1 1,0 1,-2 0,0 0,0 0,-1 0,-2 -1,-5 -1,-7 0,-2 3,-6 3,-8h0c1,-2 2,-4 2,-6 1,-2 2,-5 3,-7 0,-1 0,-3 1,-4 0,0 1,-1 1,-1 1,-4 2,-9 3,-13 0,-2 0,-4 0,-5 0,-1 0,-2 1,-3v0c0,-1 0,-2 1,-2 0,-2 0,-4 0,-6l-6,0c-1,0 -3,2 -3,3 -1,1 -1,3 -2,4l-1,0c-2,-2 -4,-4 -6,-6 -2,-2 -4,-5 -6,-7 -1,0 -3,0 -4,0l-1,-1 0,-1c0,0 0,0 0,0 0,-2 0,-4 -1,-6 -1,-1 -2,-2 -3,-2 -2,-1 -4,-2 -5,-4 -1,-1 -2,-5 -2,-6 0,-1 -1,-1 -1,-2 -1,-1 -1,-3 -2,-4 0,-1 -1,-1 -1,-2 -1,-1 -1,-4 -1,-5l-1,-2c-1,-2 -1,-3 -4,-4 -1,-2 -1,-3 -1,-5 -1,-1 -2,-2 -3,-3 -4,-3 -5,-3 -11,-4l-4,0c-3,0 -4,0 -6,2l-1,1c0,1 -1,2 -1,3 -1,2 -5,2 -6,5l0,1c0,3 1,5 -1,7 -1,1 -9,3 -11,3 0,0 -1,1 -2,1 0,0 0,1 0,1 0,1 0,1 0,2l0,2c0,0 0,1 0,1 0,1 1,2 2,3l0,2 0,1 -1,2c0,0 -2,1 -2,1 0,0 -6,-1 -6,-1 -2,0 -4,-1 -6,-2 -1,0 -2,-1 -3,-1 -2,-2 -2,-6 -1,-8 0,-2 1,-3 1,-4 0,0 0,-5 0,-5 0,-1 -1,-2 -2,-3 -1,-1 -1,-4 -1,-5 1,-3 9,-11 9,-13 0,-2 -1,-3 -1,-5l0,-1c0,-1 0,-2 1,-2 0,-1 1,-3 2,-4 0,-2 0,-3 0,-5 0,-1 1,-2 1,-2 0,-1 1,-3 1,-4 0,-1 0,-2 0,-3 0,-2 1,-3 2,-5 0,-2 0,-4 1,-5 0,-1 1,-3 2,-4 1,-4 2,-9 3,-13 0,-1 1,-3 2,-4 1,-2 1,-4 2,-6 1,-1 3,-2 4,-3 0,-5 2,-6 5,-9 0,0 0,-1 1,-1 1,0 2,-1 3,-1 0,-1 3,-6 3,-6 1,-1 2,-1 3,-2l1,-1c0,0 0,0 1,0l1,-2 0,-1c1,-1 3,-2 4,-2 1,-1 5,0 6,-1 2,-1 5,-3 6,-5 1,-1 1,-2 1,-3 0,-1 1,-2 2,-2l7,-2c0,0 1,0 1,0l6,1c0,0 2,1 3,2 1,0 3,0 4,0 2,0 4,1 6,2 1,0 2,1 3,1 1,0 2,1 3,1 4,0 8,-1 12,-2 2,0 5,-1 6,-2 1,0 2,-1 3,-2 2,-1 4,-1 6,-3 0,0 0,0 0,0l0,0c0,0 4,4 4,5 0,1 3,3 3,3l2,0c0,0 2,1 4,2 2,1 6,-1 7,-2 1,-1 2,-2 4,-2 0,0 5,4 6,7 0,4 1,10 2,12 1,2 2,2 5,6 4,3 8,6 8,6 0,0 0,4 2,6 2,2 4,3 4,6 0,2 0,10 0,10 0,0 0,3 2,5 2,2 3,5 2,8 -2,3 -2,4 -2,6 0,2 2,5 2,5 0,0 4,2 7,1 2,-1 4,-2 7,-2 2,0 10,0 10,0l2,6c0,0 0,4 2,4 2,0 7,0 7,0 0,0 -3,6 0,8 3,2 4,8 4,8v10c0,0 4,4 6,6 2,2 10,8 10,8 0,0 6,-1 8,0 2,0 4,2 7,-1 4,-2 4,-4 7,-2 2,2 12,2 12,2 0,0 4,9 5,12 1,4 0,4 -2,6 -2,2 -2,2 2,4z"/><path d="m364,1039c2,1 2,1 3,1 -1,-1 -2,-1 -3,-1l-1,0z"/><path d="m359,337c0,0 0,1 -1,1 0,0 0,-1 1,-1z"/><path d="m358,339c0,0 0,1 0,1 0,0 0,-1 0,-1z"/><path d="m356,360c0,0 0,1 0,1 0,0 0,-1 0,-1z"/><path d="m352,1333c0,0 0,0 0,0 0,0 0,0 0,0z"/><path d="m351,1333c0,0 0,0 1,-1 0,0 -1,0 -1,1z"/><path d="m331,1122c0,0 0,0 0,0l-2,0 2,0c0,0 0,0 0,0z"/><path d="m304,1322c0,0 0,0 0,0 0,0 0,0 0,0z"/><path d="m301,1322c0,0 0,0 0,0 0,0 0,0 0,0z"/><path d="m979,934 6,5c1,1 3,3 2,11 1,1 12,3 11,4l3,12c-1,0 2,0 2,1 0,0 2,6 1,6l2,1c1,2 2,2 3,4 0,1 2,2 3,4 0,2 -1,2 0,3 0,0 0,8 1,10 0,1 -3,9 -3,11 -3,-1 -16,4 -18,4 0,0 -7,10 -9,8l-6,-4 -4,-6 -6,-1 -8,-5 -9,-10 -3,-2 -1,1 -2,1 -4,-3 -5,-3 -3,-3 -13,-3 -8,1c0,1 -11,2 -14,3 -1,1 -3,0 -3,1 0,0 0,2 2,7 0,0 3,1 2,3 -2,0 1,3 1,6 3,1 7,-1 7,0 -2,2 0,2 0,4 1,2 3,5 4,6l-3,3c-2,1 2,0 -2,-1l-4,-3c-2,-2 -2,4 -4,3 -1,0 -1,-1 -2,-1 -1,0 0,8 0,8 -1,0 3,3 2,3 -1,0 3,-1 2,1 0,2 2,-3 0,4 -1,0 6,3 5,5 0,6 -2,12 -5,14 -3,2 -7,3 -11,4 -4,1 -1,1 -5,0 -3,2 -2,2 -3,4 -1,1 -2,2 -2,6 0,0 4,0 10,4 6,3 14,10 14,10 0,0 -1,4 -2,6 -1,2 -1,5 -2,5 0,0 -4,1 -4,1 -1,-1 -14,-6 -16,-6 -1,0 -8,2 -9,2 0,0 -21,1 -21,1l-18,0c-3,1 -8,1 -10,2l-4,2c-2,-1 -3,1 -5,1 -1,1 -29,1 -30,0 -1,-1 -7,-3 -10,-2 -2,-1 -6,3 -8,4 -3,3 -6,-2 -10,-3 -2,0 -12,5 -12,4 -1,-1 -6,0 -7,-1 -2,-1 -5,2 -7,1 0,0 -4,2 -8,2 0,0 -5,-2 -5,-2 -3,1 -1,-13 -3,-13 -2,0 5,-6 1,-5 -6,-4 -7,-9 -10,-14l-2,0 -5,-9c-6,2 -5,2 -8,2 -2,1 -7,1 -9,1 0,0 -3,-4 -2,-5 0,0 -1,-1 -1,-4 0,0 -1,-4 -2,-4l1,-3c0,0 3,-5 2,-4 -2,1 10,-11 9,-9 -1,1 8,-21 7,-21l0,-3c0,0 -1,-5 -3,-9 -1,-4 -3,-6 -6,-9 -2,-2 -8,-11 -8,-11l0,-10 7,-8 5,-22 5,-5 0,-8 4,-4 -2,-4 0,-2 2,-3 9,3 2,-1 1,-4 2,-4 11,-6 12,15 8,3 1,4 2,0c0,0 1,3 3,4 1,1 2,5 2,5 0,0 4,-1 7,0 2,1 3,1 6,2 3,1 6,3 8,4 2,1 10,5 13,5 3,1 17,-1 20,0 2,0 4,1 7,2 7,8 4,6 12,18 4,-1 8,-3 11,-3 3,0 17,-5 17,-5 0,0 13,0 14,0 2,0 8,-5 8,-5 1,1 3,2 8,-1l2,-7c0,-2 9,-7 10,-7 0,0 -5,-8 -4,-8 0,1 1,-5 1,-5 -1,1 5,-7 6,-6 3,0 5,2 9,3 1,0 6,-3 6,-3 1,1 5,0 6,0l4,5c0,0 3,2 5,5 1,2 2,2 5,2 2,0 -1,-1 4,-3 4,-2 2,-2 4,-1 1,1 0,-1 3,4 0,0 5,1 7,0 1,-1 -1,-1 1,-4 2,-2 2,-4 3,-3 1,4 7,5 7,5l3,2 3,3c0,0 -1,0 2,0 4,0 10,-3 10,-3l1,4 -1,4z"/></g><circle cx="740" cy="240" r="30" fill="#fff" stroke="#7d8a7e" stroke-width="6" stroke-dasharray="8 5"/><circle cx="320" cy="480" r="30" fill="#2d6e35" stroke="#fff" stroke-width="7"/><circle cx="260" cy="640" r="30" fill="#2d6e35" stroke="#fff" stroke-width="7"/><circle cx="560" cy="615" r="30" fill="#2d6e35" stroke="#fff" stroke-width="7"/><circle cx="1100" cy="645" r="30" fill="#2d6e35" stroke="#fff" stroke-width="7"/><circle cx="790" cy="700" r="36" fill="#e87722" stroke="#fff" stroke-width="8"/><circle cx="510" cy="880" r="30" fill="#2d6e35" stroke="#fff" stroke-width="7"/><circle cx="970" cy="850" r="30" fill="#2d6e35" stroke="#fff" stroke-width="7"/><circle cx="840" cy="1010" r="30" fill="#fff" stroke="#7d8a7e" stroke-width="6" stroke-dasharray="8 5"/><circle cx="650" cy="1043" r="30" fill="#2d6e35" stroke="#fff" stroke-width="7"/><circle cx="730" cy="1190" r="36" fill="#e87722" stroke="#fff" stroke-width="8"/><circle cx="1180" cy="1090" r="30" fill="#2d6e35" stroke="#fff" stroke-width="7"/><circle cx="1380" cy="1330" r="30" fill="#2d6e35" stroke="#fff" stroke-width="7"/><circle cx="1480" cy="1570" r="30" fill="#2d6e35" stroke="#fff" stroke-width="7"/><circle cx="1580" cy="1755" r="30" fill="#2d6e35" stroke="#fff" stroke-width="7"/><circle cx="1750" cy="1830" r="30" fill="#2d6e35" stroke="#fff" stroke-width="7"/><circle cx="1500" cy="2040" r="36" fill="#e87722" stroke="#fff" stroke-width="8"/><circle cx="1750" cy="2025" r="30" fill="#2d6e35" stroke="#fff" stroke-width="7"/></svg>